<?xml version="1.0" encoding="UTF-8"?>
<svg xmlns="http://www.w3.org/2000/svg" xmlns:xlink="http://www.w3.org/1999/xlink" width="160px" height="50px" viewBox="0 0 160 50" version="1.1">
<defs>
<clipPath id="clip1">
  <path d="M 90.039062 3.246094 L 133.441406 3.246094 L 133.441406 46.753906 L 90.039062 46.753906 Z M 90.039062 3.246094 "/>
</clipPath>
</defs>
<g id="surface1">
<path style="fill-rule:nonzero;fill:rgb(0%,65.098041%,31.764707%);fill-opacity:1;stroke-width:2.6667;stroke-linecap:butt;stroke-linejoin:round;stroke:rgb(0%,0%,0%);stroke-opacity:1;stroke-miterlimit:10;" d="M 9.998193 77 L 10.14292 81.379375 L 10.5771 85.746719 L 11.288672 90.065938 L 12.277637 94.337031 L 13.556055 98.535938 L 15.099805 102.638594 L 16.908887 106.632969 L 18.97124 110.495 L 21.286865 114.224688 L 23.843701 117.785938 L 26.629687 121.17875 L 29.620703 124.379063 L 32.828809 127.374844 L 36.217822 130.154063 L 39.775684 132.704688 L 43.502393 135.026719 L 47.361768 137.084063 L 51.365869 138.900781 L 55.466455 140.440781 L 59.663525 141.716094 L 63.932959 142.714687 L 68.250635 143.424531 L 72.616553 143.857656 L 76.994531 144.002031 L 81.38457 143.857656 L 85.750488 143.424531 L 90.068164 142.714687 L 94.337598 141.716094 L 98.534668 140.440781 L 102.635254 138.900781 L 106.627295 137.084063 L 110.49873 135.026719 L 114.225439 132.704688 L 117.783301 130.154063 L 121.172314 127.374844 L 124.38042 124.379063 L 127.371436 121.17875 L 130.157422 117.785938 L 132.702197 114.224688 L 135.029883 110.495 L 137.092236 106.632969 L 138.901318 102.638594 L 140.445068 98.535938 L 141.711426 94.337031 L 142.712451 90.065938 L 143.424023 85.746719 L 143.858203 81.379375 L 144.00293 77 L 143.858203 72.620625 L 143.424023 68.253281 L 142.712451 63.934063 L 141.711426 59.662969 L 140.445068 55.464063 L 138.901318 51.361406 L 137.092236 47.367031 L 135.029883 43.505 L 132.702197 39.775312 L 130.157422 36.214063 L 127.371436 32.82125 L 124.38042 29.620938 L 121.172314 26.625156 L 117.783301 23.845938 L 114.225439 21.295313 L 110.49873 18.973281 L 106.627295 16.903906 L 102.635254 15.099219 L 98.534668 13.559219 L 94.337598 12.283906 L 90.068164 11.285312 L 85.750488 10.575469 L 81.38457 10.142344 L 76.994531 9.997969 L 72.616553 10.142344 L 68.250635 10.575469 L 63.932959 11.285312 L 59.663525 12.283906 L 55.466455 13.559219 L 51.365869 15.099219 L 47.361768 16.903906 L 43.502393 18.973281 L 39.775684 21.295313 L 36.217822 23.845938 L 32.828809 26.625156 L 29.620703 29.620938 L 26.629687 32.82125 L 23.843701 36.214063 L 21.286865 39.775312 L 18.97124 43.505 L 16.908887 47.367031 L 15.099805 51.361406 L 13.556055 55.464063 L 12.277637 59.662969 L 11.288672 63.934063 L 10.5771 68.253281 L 10.14292 72.620625 Z M 9.998193 77 " transform="matrix(0.323887,0,0,0.324675,0,0)"/>
<path style="fill:none;stroke-width:1.5;stroke-linecap:butt;stroke-linejoin:miter;stroke:rgb(0%,0%,0%);stroke-opacity:1;stroke-miterlimit:4;" d="M 144.00293 76.254063 L 210.999268 76.254063 " transform="matrix(0.323887,0,0,0.324675,0,0)"/>
<path style="fill:none;stroke-width:1.5;stroke-linecap:butt;stroke-linejoin:miter;stroke:rgb(0%,0%,0%);stroke-opacity:1;stroke-miterlimit:4;" d="M 210.999268 76.254063 L 277.995605 76.254063 " transform="matrix(0.323887,0,0,0.324675,0,0)"/>
<g clip-path="url(#clip1)" clip-rule="nonzero">
<path style=" stroke:none;fill-rule:nonzero;fill:rgb(0%,44.705883%,73.725492%);fill-opacity:1;" d="M 90.039062 3.246094 L 90.039062 46.753906 L 133.441406 46.753906 L 133.441406 3.246094 Z M 90.039062 3.246094 "/>
<path style="fill:none;stroke-width:2.6667;stroke-linecap:square;stroke-linejoin:miter;stroke:rgb(0%,0%,0%);stroke-opacity:1;stroke-miterlimit:10;" d="M 410.661621 11.333438 L 410.661621 142.666562 L 279.334326 142.666562 L 279.334326 11.333438 Z M 410.661621 11.333438 " transform="matrix(0.323887,0,0,0.324675,0,0)"/>
</g>
<path style="fill:none;stroke-width:1.5;stroke-linecap:butt;stroke-linejoin:miter;stroke:rgb(0%,0%,0%);stroke-opacity:1;stroke-miterlimit:4;" d="M 412.000342 76.254063 L 478.99668 76.254063 " transform="matrix(0.323887,0,0,0.324675,0,0)"/>
<path style=" stroke:none;fill-rule:nonzero;fill:rgb(0%,0%,0%);fill-opacity:1;" d="M 48.863281 46.414062 L 48.863281 31.628906 C 48.863281 30.566406 49.019531 29.675781 49.328125 28.960938 C 49.652344 28.234375 50.136719 27.6875 50.785156 27.324219 C 51.445312 26.949219 52.277344 26.757812 53.273438 26.757812 C 54.039062 26.757812 54.6875 26.882812 55.21875 27.128906 C 55.761719 27.363281 56.203125 27.675781 56.539062 28.066406 C 56.875 28.453125 57.121094 28.890625 57.277344 29.371094 C 57.433594 29.851562 57.511719 30.324219 57.511719 30.792969 C 57.511719 31.414062 57.398438 31.949219 57.179688 32.390625 C 56.972656 32.832031 56.714844 33.1875 56.402344 33.460938 C 56.105469 33.722656 55.8125 33.902344 55.527344 34.007812 L 55.527344 34.085938 C 56.058594 34.214844 56.53125 34.449219 56.945312 34.785156 C 57.375 35.125 57.703125 35.546875 57.9375 36.050781 C 58.183594 36.558594 58.308594 37.128906 58.308594 37.765625 C 58.308594 38.753906 58.105469 39.605469 57.703125 40.316406 C 57.316406 41.03125 56.777344 41.578125 56.089844 41.953125 C 55.40625 42.332031 54.621094 42.519531 53.738281 42.519531 C 53.234375 42.519531 52.761719 42.441406 52.320312 42.285156 C 51.894531 42.144531 51.523438 41.941406 51.214844 41.683594 C 50.902344 41.421875 50.664062 41.144531 50.496094 40.84375 L 50.417969 40.84375 L 50.496094 42.148438 L 50.496094 46.414062 Z M 53.664062 41.019531 C 54.308594 41.019531 54.855469 40.882812 55.292969 40.609375 C 55.734375 40.335938 56.066406 39.960938 56.285156 39.480469 C 56.519531 39 56.636719 38.460938 56.636719 37.863281 C 56.636719 36.914062 56.375 36.203125 55.859375 35.722656 C 55.339844 35.226562 54.601562 34.980469 53.644531 34.980469 L 52.050781 34.980469 L 52.050781 33.480469 L 53.15625 33.480469 C 53.804688 33.480469 54.324219 33.363281 54.710938 33.128906 C 55.101562 32.882812 55.386719 32.566406 55.566406 32.175781 C 55.746094 31.785156 55.839844 31.363281 55.839844 30.910156 C 55.839844 30.128906 55.613281 29.492188 55.160156 29 C 54.71875 28.507812 54.089844 28.257812 53.273438 28.257812 C 52.625 28.257812 52.089844 28.390625 51.660156 28.648438 C 51.234375 28.910156 50.914062 29.292969 50.707031 29.796875 C 50.5 30.292969 50.398438 30.902344 50.398438 31.628906 L 50.398438 37.007812 C 50.398438 37.785156 50.519531 38.480469 50.765625 39.089844 C 51.011719 39.6875 51.375 40.164062 51.855469 40.511719 C 52.347656 40.851562 52.949219 41.019531 53.664062 41.019531 Z M 53.664062 41.019531 "/>
<path style=" stroke:none;fill-rule:nonzero;fill:rgb(0%,0%,0%);fill-opacity:1;" d="M 78.058594 39.128906 L 78.058594 37.902344 L 83.984375 28.257812 L 85.695312 28.257812 L 85.695312 37.570312 L 87.386719 37.570312 L 87.386719 39.128906 L 85.695312 39.128906 L 85.695312 42.207031 L 84.082031 42.207031 L 84.082031 39.128906 Z M 84.082031 37.570312 L 84.082031 30.988281 L 84.003906 30.988281 L 80.003906 37.570312 Z M 84.082031 37.570312 "/>
<path style=" stroke:none;fill-rule:nonzero;fill:rgb(0%,0%,0%);fill-opacity:1;" d="M 135.664062 46.414062 L 135.664062 31.628906 C 135.664062 30.566406 135.820312 29.675781 136.128906 28.960938 C 136.453125 28.234375 136.941406 27.6875 137.585938 27.324219 C 138.25 26.949219 139.078125 26.757812 140.074219 26.757812 C 140.839844 26.757812 141.488281 26.882812 142.019531 27.128906 C 142.5625 27.363281 143.003906 27.675781 143.339844 28.066406 C 143.675781 28.453125 143.921875 28.890625 144.078125 29.371094 C 144.234375 29.851562 144.3125 30.324219 144.3125 30.792969 C 144.3125 31.414062 144.203125 31.949219 143.980469 32.390625 C 143.773438 32.832031 143.515625 33.1875 143.203125 33.460938 C 142.90625 33.722656 142.613281 33.902344 142.328125 34.007812 L 142.328125 34.085938 C 142.859375 34.214844 143.332031 34.449219 143.746094 34.785156 C 144.175781 35.125 144.507812 35.546875 144.738281 36.050781 C 144.984375 36.558594 145.109375 37.128906 145.109375 37.765625 C 145.109375 38.753906 144.90625 39.605469 144.507812 40.316406 C 144.117188 41.03125 143.578125 41.578125 142.894531 41.953125 C 142.207031 42.332031 141.421875 42.519531 140.542969 42.519531 C 140.035156 42.519531 139.5625 42.441406 139.121094 42.285156 C 138.695312 42.144531 138.324219 41.941406 138.015625 41.683594 C 137.703125 41.421875 137.464844 41.144531 137.296875 40.84375 L 137.21875 40.84375 L 137.296875 42.148438 L 137.296875 46.414062 Z M 140.464844 41.019531 C 141.113281 41.019531 141.65625 40.882812 142.097656 40.609375 C 142.535156 40.335938 142.867188 39.960938 143.085938 39.480469 C 143.320312 39 143.4375 38.460938 143.4375 37.863281 C 143.4375 36.914062 143.179688 36.203125 142.660156 35.722656 C 142.140625 35.226562 141.402344 34.980469 140.445312 34.980469 L 138.851562 34.980469 L 138.851562 33.480469 L 139.957031 33.480469 C 140.605469 33.480469 141.125 33.363281 141.511719 33.128906 C 141.902344 32.882812 142.1875 32.566406 142.367188 32.175781 C 142.550781 31.785156 142.640625 31.363281 142.640625 30.910156 C 142.640625 30.128906 142.414062 29.492188 141.960938 29 C 141.519531 28.507812 140.890625 28.257812 140.074219 28.257812 C 139.425781 28.257812 138.890625 28.390625 138.460938 28.648438 C 138.035156 28.910156 137.71875 29.292969 137.511719 29.796875 C 137.300781 30.292969 137.199219 30.902344 137.199219 31.628906 L 137.199219 37.007812 C 137.199219 37.785156 137.320312 38.480469 137.566406 39.089844 C 137.8125 39.6875 138.175781 40.164062 138.65625 40.511719 C 139.148438 40.851562 139.75 41.019531 140.464844 41.019531 Z M 140.464844 41.019531 "/>
<path style="fill:none;stroke-width:1.5;stroke-linecap:butt;stroke-linejoin:miter;stroke:rgb(0%,0%,0%);stroke-opacity:1;stroke-miterlimit:4;" d="M 483.073145 19.502656 C 478.502197 21.499844 479.020801 30.005938 479.020801 30.005938 L 479.020801 125.004688 C 479.020801 125.004688 478.514258 132.500156 483.073145 134.497344 " transform="matrix(0.323887,0,0,0.324675,0,0)"/>
</g>
</svg>
