<?xml version="1.0" encoding="UTF-8"?>
<svg xmlns="http://www.w3.org/2000/svg" xmlns:xlink="http://www.w3.org/1999/xlink" width="247px" height="50px" viewBox="0 0 247 50" version="1.1">
<defs>
<clipPath id="clip1">
  <path d="M 176.984375 3.246094 L 220.421875 3.246094 L 220.421875 46.753906 L 176.984375 46.753906 Z M 176.984375 3.246094 "/>
</clipPath>
</defs>
<g id="surface1">
<path style="fill-rule:nonzero;fill:rgb(0%,44.705883%,73.725492%);fill-opacity:1;stroke-width:2.6667;stroke-linecap:butt;stroke-linejoin:round;stroke:rgb(0%,0%,0%);stroke-opacity:1;stroke-miterlimit:10;" d="M 10.002214 77 L 10.146824 81.379375 L 10.568605 85.746719 L 11.291656 90.065938 L 12.279827 94.337031 L 13.557218 98.535938 L 15.099728 102.638594 L 16.907357 106.632969 L 18.980105 110.495 L 21.29387 114.224688 L 23.848653 117.785938 L 26.632401 121.17875 L 29.621015 124.379063 L 32.826544 127.374844 L 36.212835 130.154063 L 39.77989 132.704688 L 43.503606 135.026719 L 47.371932 137.084063 L 51.360767 138.900781 L 55.458059 140.440781 L 59.663809 141.716094 L 63.929814 142.714687 L 68.256073 143.424531 L 72.618484 143.857656 L 77.004997 144.002031 L 81.37946 143.857656 L 85.741871 143.424531 L 90.06813 142.714687 L 94.346185 141.716094 L 98.539885 140.440781 L 102.637177 138.900781 L 106.638063 137.084063 L 110.494338 135.026719 L 114.218054 132.704688 L 117.785109 130.154063 L 121.171401 127.374844 L 124.376929 124.379063 L 127.377594 121.17875 L 130.149291 117.785938 L 132.704074 114.224688 L 135.02989 110.495 L 137.090587 106.632969 L 138.898216 102.638594 L 140.440726 98.535938 L 141.718117 94.337031 L 142.718339 90.065938 L 143.42934 85.746719 L 143.85112 81.379375 L 143.99573 77 L 143.85112 72.620625 L 143.42934 68.253281 L 142.718339 63.934063 L 141.718117 59.662969 L 140.440726 55.464063 L 138.898216 51.361406 L 137.090587 47.367031 L 135.02989 43.505 L 132.704074 39.775312 L 130.149291 36.214063 L 127.377594 32.82125 L 124.376929 29.620938 L 121.171401 26.625156 L 117.785109 23.845938 L 114.218054 21.295313 L 110.494338 18.973281 L 106.638063 16.903906 L 102.637177 15.099219 L 98.539885 13.559219 L 94.346185 12.283906 L 90.06813 11.285312 L 85.741871 10.575469 L 81.37946 10.142344 L 77.004997 9.997969 L 72.618484 10.142344 L 68.256073 10.575469 L 63.929814 11.285312 L 59.663809 12.283906 L 55.458059 13.559219 L 51.360767 15.099219 L 47.371932 16.903906 L 43.503606 18.973281 L 39.77989 21.295313 L 36.212835 23.845938 L 32.826544 26.625156 L 29.621015 29.620938 L 26.632401 32.82125 L 23.848653 36.214063 L 21.29387 39.775312 L 18.980105 43.505 L 16.907357 47.367031 L 15.099728 51.361406 L 13.557218 55.464063 L 12.279827 59.662969 L 11.291656 63.934063 L 10.568605 68.253281 L 10.146824 72.620625 Z M 10.002214 77 " transform="matrix(0.324147,0,0,0.324675,0,0)"/>
<path style="fill:none;stroke-width:1.5;stroke-linecap:butt;stroke-linejoin:miter;stroke:rgb(0%,0%,0%);stroke-opacity:1;stroke-miterlimit:4;" d="M 143.99573 76.254063 L 210.998513 76.254063 " transform="matrix(0.324147,0,0,0.324675,0,0)"/>
<path style="fill:none;stroke-width:1.5;stroke-linecap:butt;stroke-linejoin:miter;stroke:rgb(0%,0%,0%);stroke-opacity:1;stroke-miterlimit:4;" d="M 210.998513 76.254063 L 278.001297 76.254063 " transform="matrix(0.324147,0,0,0.324675,0,0)"/>
<path style="fill-rule:nonzero;fill:rgb(0%,65.098041%,31.764707%);fill-opacity:1;stroke-width:2.6667;stroke-linecap:butt;stroke-linejoin:round;stroke:rgb(0%,0%,0%);stroke-opacity:1;stroke-miterlimit:10;" d="M 278.001297 77 L 278.145907 81.379375 L 278.567687 85.746719 L 279.290739 90.065938 L 280.278909 94.337031 L 281.556301 98.535938 L 283.098811 102.638594 L 284.90644 106.632969 L 286.979188 110.495 L 289.292953 114.224688 L 291.847735 117.785938 L 294.631484 121.17875 L 297.620097 124.379063 L 300.825626 127.374844 L 304.211918 130.154063 L 307.778973 132.704688 L 311.502689 135.026719 L 315.371015 137.084063 L 319.359849 138.900781 L 323.469193 140.440781 L 327.662892 141.716094 L 331.928897 142.714687 L 336.255156 143.424531 L 340.617567 143.857656 L 345.00408 144.002031 L 349.378543 143.857656 L 353.740954 143.424531 L 358.067213 142.714687 L 362.345268 141.716094 L 366.538968 140.440781 L 370.63626 138.900781 L 374.637146 137.084063 L 378.505472 135.026719 L 382.217137 132.704688 L 385.784192 130.154063 L 389.170483 127.374844 L 392.376012 124.379063 L 395.376676 121.17875 L 398.160425 117.785938 L 400.703157 114.224688 L 403.028973 110.495 L 405.08967 106.632969 L 406.897299 102.638594 L 408.439809 98.535938 L 409.7172 94.337031 L 410.717422 90.065938 L 411.428422 85.746719 L 411.862253 81.379375 L 411.994813 77 L 411.862253 72.620625 L 411.428422 68.253281 L 410.717422 63.934063 L 409.7172 59.662969 L 408.439809 55.464063 L 406.897299 51.361406 L 405.08967 47.367031 L 403.028973 43.505 L 400.703157 39.775312 L 398.160425 36.214063 L 395.376676 32.82125 L 392.376012 29.620938 L 389.170483 26.625156 L 385.784192 23.845938 L 382.217137 21.295313 L 378.505472 18.973281 L 374.637146 16.903906 L 370.63626 15.099219 L 366.538968 13.559219 L 362.345268 12.283906 L 358.067213 11.285312 L 353.740954 10.575469 L 349.378543 10.142344 L 345.00408 9.997969 L 340.617567 10.142344 L 336.255156 10.575469 L 331.928897 11.285312 L 327.662892 12.283906 L 323.469193 13.559219 L 319.359849 15.099219 L 315.371015 16.903906 L 311.502689 18.973281 L 307.778973 21.295313 L 304.211918 23.845938 L 300.825626 26.625156 L 297.620097 29.620938 L 294.631484 32.82125 L 291.847735 36.214063 L 289.292953 39.775312 L 286.979188 43.505 L 284.90644 47.367031 L 283.098811 51.361406 L 281.556301 55.464063 L 280.278909 59.662969 L 279.290739 63.934063 L 278.567687 68.253281 L 278.145907 72.620625 Z M 278.001297 77 " transform="matrix(0.324147,0,0,0.324675,0,0)"/>
<path style="fill:none;stroke-width:1.5;stroke-linecap:butt;stroke-linejoin:miter;stroke:rgb(0%,0%,0%);stroke-opacity:1;stroke-miterlimit:4;" d="M 411.994813 76.254063 L 478.997596 76.254063 " transform="matrix(0.324147,0,0,0.324675,0,0)"/>
<path style="fill:none;stroke-width:1.5;stroke-linecap:butt;stroke-linejoin:miter;stroke:rgb(0%,0%,0%);stroke-opacity:1;stroke-miterlimit:4;" d="M 478.997596 76.254063 L 546.00038 76.254063 " transform="matrix(0.324147,0,0,0.324675,0,0)"/>
<g clip-path="url(#clip1)" clip-rule="nonzero">
<path style=" stroke:none;fill-rule:nonzero;fill:rgb(0%,44.705883%,73.725492%);fill-opacity:1;" d="M 176.984375 3.246094 L 176.984375 46.753906 L 220.421875 46.753906 L 220.421875 3.246094 Z M 176.984375 3.246094 "/>
<path style="fill:none;stroke-width:2.6667;stroke-linecap:square;stroke-linejoin:miter;stroke:rgb(0%,0%,0%);stroke-opacity:1;stroke-miterlimit:10;" d="M 678.668301 11.333438 L 678.668301 142.666562 L 547.338025 142.666562 L 547.338025 11.333438 Z M 678.668301 11.333438 " transform="matrix(0.324147,0,0,0.324675,0,0)"/>
</g>
<path style="fill:none;stroke-width:1.5;stroke-linecap:butt;stroke-linejoin:miter;stroke:rgb(0%,0%,0%);stroke-opacity:1;stroke-miterlimit:4;" d="M 680.005946 76.254063 L 746.996679 76.254063 " transform="matrix(0.324147,0,0,0.324675,0,0)"/>
<path style=" stroke:none;fill-rule:nonzero;fill:rgb(0%,0%,0%);fill-opacity:1;" d="M 48.902344 46.414062 L 48.902344 31.628906 C 48.902344 30.566406 49.058594 29.675781 49.367188 28.960938 C 49.691406 28.234375 50.179688 27.6875 50.828125 27.324219 C 51.488281 26.949219 52.316406 26.757812 53.316406 26.757812 C 54.082031 26.757812 54.730469 26.882812 55.261719 27.128906 C 55.804688 27.363281 56.246094 27.675781 56.582031 28.066406 C 56.921875 28.453125 57.167969 28.890625 57.324219 29.371094 C 57.476562 29.851562 57.554688 30.324219 57.554688 30.792969 C 57.554688 31.414062 57.445312 31.949219 57.226562 32.390625 C 57.019531 32.832031 56.757812 33.1875 56.449219 33.460938 C 56.148438 33.722656 55.859375 33.902344 55.574219 34.007812 L 55.574219 34.085938 C 56.105469 34.214844 56.578125 34.449219 56.992188 34.785156 C 57.421875 35.125 57.75 35.546875 57.984375 36.050781 C 58.230469 36.558594 58.355469 37.128906 58.355469 37.765625 C 58.355469 38.753906 58.152344 39.605469 57.75 40.316406 C 57.363281 41.03125 56.824219 41.578125 56.136719 41.953125 C 55.449219 42.332031 54.664062 42.519531 53.78125 42.519531 C 53.277344 42.519531 52.804688 42.441406 52.363281 42.285156 C 51.933594 42.144531 51.566406 41.941406 51.253906 41.683594 C 50.945312 41.421875 50.703125 41.144531 50.535156 40.84375 L 50.457031 40.84375 L 50.535156 42.148438 L 50.535156 46.414062 Z M 53.707031 41.019531 C 54.355469 41.019531 54.898438 40.882812 55.339844 40.609375 C 55.78125 40.335938 56.109375 39.960938 56.332031 39.480469 C 56.5625 39 56.679688 38.460938 56.679688 37.863281 C 56.679688 36.914062 56.421875 36.203125 55.902344 35.722656 C 55.382812 35.226562 54.644531 34.980469 53.6875 34.980469 L 52.089844 34.980469 L 52.089844 33.480469 L 53.199219 33.480469 C 53.847656 33.480469 54.367188 33.363281 54.753906 33.128906 C 55.144531 32.882812 55.429688 32.566406 55.609375 32.175781 C 55.792969 31.785156 55.882812 31.363281 55.882812 30.910156 C 55.882812 30.128906 55.65625 29.492188 55.203125 29 C 54.761719 28.507812 54.132812 28.257812 53.316406 28.257812 C 52.667969 28.257812 52.128906 28.390625 51.703125 28.648438 C 51.273438 28.910156 50.957031 29.292969 50.75 29.796875 C 50.542969 30.292969 50.4375 30.902344 50.4375 31.628906 L 50.4375 37.007812 C 50.4375 37.785156 50.5625 38.480469 50.808594 39.089844 C 51.054688 39.6875 51.417969 40.164062 51.898438 40.511719 C 52.390625 40.851562 52.992188 41.019531 53.707031 41.019531 Z M 53.707031 41.019531 "/>
<path style=" stroke:none;fill-rule:nonzero;fill:rgb(0%,0%,0%);fill-opacity:1;" d="M 78.121094 39.128906 L 78.121094 37.902344 L 84.054688 28.257812 L 85.765625 28.257812 L 85.765625 37.570312 L 87.457031 37.570312 L 87.457031 39.128906 L 85.765625 39.128906 L 85.765625 42.207031 L 84.152344 42.207031 L 84.152344 39.128906 Z M 84.152344 37.570312 L 84.152344 30.988281 L 84.074219 30.988281 L 80.066406 37.570312 Z M 84.152344 37.570312 "/>
<path style=" stroke:none;fill-rule:nonzero;fill:rgb(0%,0%,0%);fill-opacity:1;" d="M 135.773438 46.414062 L 135.773438 31.628906 C 135.773438 30.566406 135.929688 29.675781 136.238281 28.960938 C 136.5625 28.234375 137.050781 27.6875 137.699219 27.324219 C 138.359375 26.949219 139.1875 26.757812 140.1875 26.757812 C 140.953125 26.757812 141.601562 26.882812 142.132812 27.128906 C 142.675781 27.363281 143.117188 27.675781 143.457031 28.066406 C 143.792969 28.453125 144.039062 28.890625 144.195312 29.371094 C 144.351562 29.851562 144.425781 30.324219 144.425781 30.792969 C 144.425781 31.414062 144.316406 31.949219 144.097656 32.390625 C 143.890625 32.832031 143.628906 33.1875 143.320312 33.460938 C 143.019531 33.722656 142.730469 33.902344 142.445312 34.007812 L 142.445312 34.085938 C 142.976562 34.214844 143.449219 34.449219 143.863281 34.785156 C 144.292969 35.125 144.621094 35.546875 144.855469 36.050781 C 145.101562 36.558594 145.226562 37.128906 145.226562 37.765625 C 145.226562 38.753906 145.023438 39.605469 144.621094 40.316406 C 144.234375 41.03125 143.695312 41.578125 143.007812 41.953125 C 142.320312 42.332031 141.535156 42.519531 140.65625 42.519531 C 140.148438 42.519531 139.675781 42.441406 139.234375 42.285156 C 138.808594 42.144531 138.4375 41.941406 138.125 41.683594 C 137.816406 41.421875 137.574219 41.144531 137.40625 40.84375 L 137.328125 40.84375 L 137.40625 42.148438 L 137.40625 46.414062 Z M 140.578125 41.019531 C 141.226562 41.019531 141.769531 40.882812 142.210938 40.609375 C 142.652344 40.335938 142.980469 39.960938 143.203125 39.480469 C 143.4375 39 143.550781 38.460938 143.550781 37.863281 C 143.550781 36.914062 143.292969 36.203125 142.773438 35.722656 C 142.253906 35.226562 141.515625 34.980469 140.558594 34.980469 L 138.960938 34.980469 L 138.960938 33.480469 L 140.070312 33.480469 C 140.71875 33.480469 141.238281 33.363281 141.625 33.128906 C 142.015625 32.882812 142.300781 32.566406 142.484375 32.175781 C 142.664062 31.785156 142.753906 31.363281 142.753906 30.910156 C 142.753906 30.128906 142.527344 29.492188 142.074219 29 C 141.632812 28.507812 141.003906 28.257812 140.1875 28.257812 C 139.539062 28.257812 139 28.390625 138.574219 28.648438 C 138.144531 28.910156 137.828125 29.292969 137.621094 29.796875 C 137.414062 30.292969 137.308594 30.902344 137.308594 31.628906 L 137.308594 37.007812 C 137.308594 37.785156 137.433594 38.480469 137.679688 39.089844 C 137.925781 39.6875 138.289062 40.164062 138.769531 40.511719 C 139.261719 40.851562 139.863281 41.019531 140.578125 41.019531 Z M 140.578125 41.019531 "/>
<path style=" stroke:none;fill-rule:nonzero;fill:rgb(0%,0%,0%);fill-opacity:1;" d="M 165.640625 39.128906 L 165.640625 37.902344 L 171.574219 28.257812 L 173.285156 28.257812 L 173.285156 37.570312 L 174.976562 37.570312 L 174.976562 39.128906 L 173.285156 39.128906 L 173.285156 42.207031 L 171.671875 42.207031 L 171.671875 39.128906 Z M 171.671875 37.570312 L 171.671875 30.988281 L 171.59375 30.988281 L 167.585938 37.570312 Z M 171.671875 37.570312 "/>
<path style=" stroke:none;fill-rule:nonzero;fill:rgb(0%,0%,0%);fill-opacity:1;" d="M 222.644531 46.414062 L 222.644531 31.628906 C 222.644531 30.566406 222.800781 29.675781 223.109375 28.960938 C 223.433594 28.234375 223.921875 27.6875 224.570312 27.324219 C 225.230469 26.949219 226.0625 26.757812 227.058594 26.757812 C 227.824219 26.757812 228.472656 26.882812 229.003906 27.128906 C 229.546875 27.363281 229.988281 27.675781 230.328125 28.066406 C 230.664062 28.453125 230.910156 28.890625 231.066406 29.371094 C 231.222656 29.851562 231.300781 30.324219 231.300781 30.792969 C 231.300781 31.414062 231.1875 31.949219 230.96875 32.390625 C 230.761719 32.832031 230.5 33.1875 230.191406 33.460938 C 229.890625 33.722656 229.601562 33.902344 229.316406 34.007812 L 229.316406 34.085938 C 229.847656 34.214844 230.320312 34.449219 230.734375 34.785156 C 231.164062 35.125 231.492188 35.546875 231.726562 36.050781 C 231.972656 36.558594 232.097656 37.128906 232.097656 37.765625 C 232.097656 38.753906 231.894531 39.605469 231.492188 40.316406 C 231.105469 41.03125 230.566406 41.578125 229.878906 41.953125 C 229.191406 42.332031 228.40625 42.519531 227.527344 42.519531 C 227.019531 42.519531 226.546875 42.441406 226.105469 42.285156 C 225.679688 42.144531 225.308594 41.941406 224.996094 41.683594 C 224.6875 41.421875 224.445312 41.144531 224.277344 40.84375 L 224.199219 40.84375 L 224.277344 42.148438 L 224.277344 46.414062 Z M 227.449219 41.019531 C 228.097656 41.019531 228.640625 40.882812 229.082031 40.609375 C 229.523438 40.335938 229.851562 39.960938 230.074219 39.480469 C 230.308594 39 230.421875 38.460938 230.421875 37.863281 C 230.421875 36.914062 230.164062 36.203125 229.644531 35.722656 C 229.128906 35.226562 228.386719 34.980469 227.429688 34.980469 L 225.832031 34.980469 L 225.832031 33.480469 L 226.941406 33.480469 C 227.589844 33.480469 228.109375 33.363281 228.5 33.128906 C 228.886719 32.882812 229.171875 32.566406 229.355469 32.175781 C 229.535156 31.785156 229.625 31.363281 229.625 30.910156 C 229.625 30.128906 229.398438 29.492188 228.945312 29 C 228.503906 28.507812 227.875 28.257812 227.058594 28.257812 C 226.410156 28.257812 225.871094 28.390625 225.445312 28.648438 C 225.015625 28.910156 224.699219 29.292969 224.492188 29.796875 C 224.285156 30.292969 224.179688 30.902344 224.179688 31.628906 L 224.179688 37.007812 C 224.179688 37.785156 224.304688 38.480469 224.550781 39.089844 C 224.796875 39.6875 225.160156 40.164062 225.640625 40.511719 C 226.132812 40.851562 226.734375 41.019531 227.449219 41.019531 Z M 227.449219 41.019531 "/>
<path style="fill:none;stroke-width:1.5;stroke-linecap:butt;stroke-linejoin:miter;stroke:rgb(0%,0%,0%);stroke-opacity:1;stroke-miterlimit:4;" d="M 751.06987 19.502656 C 746.502594 21.499844 747.020781 30.005938 747.020781 30.005938 L 747.020781 125.004688 C 747.020781 125.004688 746.514644 132.500156 751.06987 134.497344 " transform="matrix(0.324147,0,0,0.324675,0,0)"/>
</g>
</svg>
