<?xml version="1.0" encoding="UTF-8"?>
<svg xmlns="http://www.w3.org/2000/svg" xmlns:xlink="http://www.w3.org/1999/xlink" width="176px" height="150px" viewBox="0 0 175 150" version="1.1">
<defs>
<clipPath id="clip1">
  <path d="M 121 51.183594 L 123 51.183594 L 123 76 L 121 76 Z M 121 51.183594 "/>
</clipPath>
<clipPath id="clip2">
  <path d="M 121 74 L 123 74 L 123 98.816406 L 121 98.816406 Z M 121 74 "/>
</clipPath>
<clipPath id="clip3">
  <path d="M 3.542969 98.816406 L 51.011719 98.816406 L 51.011719 146.445312 L 3.542969 146.445312 Z M 3.542969 98.816406 "/>
</clipPath>
<clipPath id="clip4">
  <path d="M 98.480469 98.816406 L 145.953125 98.816406 L 145.953125 146.445312 L 98.480469 146.445312 Z M 98.480469 98.816406 "/>
</clipPath>
<clipPath id="clip5">
  <path d="M 166 99 L 174.671875 99 L 174.671875 147 L 166 147 Z M 166 99 "/>
</clipPath>
</defs>
<g id="surface1">
<path style=" stroke:none;fill-rule:nonzero;fill:rgb(92.941177%,10.980392%,14.117648%);fill-opacity:1;" d="M 98.480469 51.183594 L 145.953125 51.183594 L 122.214844 3.554688 Z M 98.480469 51.183594 "/>
<path style="fill:none;stroke-width:2.6667;stroke-linecap:square;stroke-linejoin:miter;stroke:rgb(0%,0%,0%);stroke-opacity:1;stroke-miterlimit:10;" d="M 280.157545 142.666771 L 344.995045 12.978698 L 409.843571 142.666771 Z M 280.157545 142.666771 " transform="matrix(0.354251,0,0,0.35545,0,0)"/>
<g clip-path="url(#clip1)" clip-rule="nonzero">
<path style="fill:none;stroke-width:1.5;stroke-linecap:butt;stroke-linejoin:miter;stroke:rgb(0%,0%,0%);stroke-opacity:1;stroke-miterlimit:4;" d="M 344.245223 211 L 344.245223 143.99651 " transform="matrix(0.354251,0,0,0.35545,0,0)"/>
</g>
<g clip-path="url(#clip2)" clip-rule="nonzero">
<path style="fill:none;stroke-width:1.5;stroke-linecap:butt;stroke-linejoin:miter;stroke:rgb(0%,0%,0%);stroke-opacity:1;stroke-miterlimit:4;" d="M 344.245223 278.00349 L 344.245223 211 " transform="matrix(0.354251,0,0,0.35545,0,0)"/>
</g>
<path style=" stroke:none;fill-rule:nonzero;fill:rgb(0%,0%,0%);fill-opacity:1;" d="M 110.566406 97.023438 C 109.65625 97.023438 108.871094 96.847656 108.207031 96.492188 C 107.539062 96.136719 107 95.671875 106.589844 95.105469 C 106.191406 94.550781 105.917969 93.9375 105.761719 93.269531 C 105.605469 92.601562 105.527344 91.820312 105.527344 90.925781 C 105.527344 90.097656 105.625 89.308594 105.824219 88.558594 C 106.039062 87.789062 106.320312 87.058594 106.675781 86.359375 C 107.027344 85.691406 107.445312 85.058594 107.929688 84.460938 C 108.425781 83.851562 108.96875 83.273438 109.566406 82.734375 C 110.160156 82.179688 110.796875 81.667969 111.480469 81.199219 L 112.519531 82.585938 C 111.953125 82.925781 111.394531 83.339844 110.839844 83.824219 C 110.289062 84.292969 109.769531 84.808594 109.289062 85.378906 C 108.820312 85.949219 108.417969 86.550781 108.078125 87.191406 C 107.75 87.816406 107.523438 88.449219 107.398438 89.089844 L 107.460938 89.132812 C 107.757812 88.648438 108.21875 88.242188 108.84375 87.917969 C 109.480469 87.589844 110.1875 87.425781 110.96875 87.425781 C 111.621094 87.425781 112.222656 87.546875 112.773438 87.789062 C 113.328125 88.015625 113.808594 88.34375 114.21875 88.769531 C 114.632812 89.183594 114.949219 89.679688 115.175781 90.261719 C 115.417969 90.832031 115.539062 91.457031 115.539062 92.140625 C 115.539062 93.007812 115.3125 93.808594 114.859375 94.550781 C 114.417969 95.289062 113.824219 95.886719 113.074219 96.339844 C 112.320312 96.796875 111.484375 97.023438 110.566406 97.023438 Z M 110.566406 95.296875 C 111.144531 95.296875 111.667969 95.167969 112.136719 94.914062 C 112.621094 94.65625 113 94.292969 113.285156 93.824219 C 113.570312 93.355469 113.710938 92.800781 113.710938 92.160156 C 113.710938 91.519531 113.570312 90.96875 113.285156 90.496094 C 113 90.027344 112.621094 89.671875 112.136719 89.429688 C 111.667969 89.175781 111.144531 89.046875 110.566406 89.046875 C 109.984375 89.046875 109.453125 89.175781 108.96875 89.429688 C 108.488281 89.671875 108.105469 90.027344 107.824219 90.496094 C 107.539062 90.96875 107.398438 91.519531 107.398438 92.160156 C 107.398438 92.800781 107.539062 93.355469 107.824219 93.824219 C 108.105469 94.292969 108.488281 94.65625 108.96875 94.914062 C 109.453125 95.167969 109.984375 95.296875 110.566406 95.296875 Z M 110.566406 95.296875 "/>
<path style=" stroke:none;fill-rule:nonzero;fill:rgb(0%,0%,0%);fill-opacity:1;" d="M 109.375 65.742188 C 108.695312 65.742188 108.058594 65.617188 107.464844 65.359375 C 106.867188 65.089844 106.34375 64.707031 105.890625 64.207031 C 105.4375 63.695312 105.082031 63.070312 104.828125 62.332031 C 104.574219 61.59375 104.445312 60.746094 104.445312 59.792969 C 104.445312 58.527344 104.664062 57.453125 105.105469 56.574219 C 105.558594 55.691406 106.160156 55.015625 106.910156 54.546875 C 107.660156 54.078125 108.484375 53.84375 109.375 53.84375 C 109.957031 53.84375 110.480469 53.9375 110.949219 54.121094 C 111.429688 54.292969 111.839844 54.527344 112.183594 54.824219 C 112.535156 55.125 112.796875 55.457031 112.96875 55.828125 L 113.054688 55.828125 L 113.054688 54.183594 L 114.753906 54.183594 L 114.753906 62.097656 C 114.753906 62.625 114.84375 63.042969 115.03125 63.355469 C 115.226562 63.667969 115.554688 63.824219 116.007812 63.824219 C 116.164062 63.824219 116.304688 63.804688 116.433594 63.761719 C 116.558594 63.71875 116.703125 63.660156 116.859375 63.589844 L 116.859375 65.425781 C 116.714844 65.480469 116.554688 65.515625 116.367188 65.53125 C 116.199219 65.558594 116.023438 65.574219 115.835938 65.574219 C 115.144531 65.574219 114.570312 65.445312 114.117188 65.191406 C 113.664062 64.917969 113.351562 64.394531 113.179688 63.613281 L 113.09375 63.613281 C 112.769531 64.28125 112.273438 64.804688 111.609375 65.191406 C 110.941406 65.558594 110.199219 65.742188 109.375 65.742188 Z M 109.652344 64.101562 C 110.320312 64.101562 110.90625 63.9375 111.417969 63.613281 C 111.925781 63.285156 112.324219 62.800781 112.605469 62.160156 C 112.90625 61.507812 113.054688 60.710938 113.054688 59.773438 C 113.054688 58.847656 112.90625 58.066406 112.605469 57.425781 C 112.324219 56.785156 111.925781 56.304688 111.417969 55.976562 C 110.90625 55.648438 110.320312 55.484375 109.652344 55.484375 C 108.972656 55.484375 108.371094 55.648438 107.84375 55.976562 C 107.335938 56.304688 106.9375 56.785156 106.65625 57.425781 C 106.371094 58.066406 106.230469 58.855469 106.230469 59.792969 C 106.230469 60.71875 106.371094 61.507812 106.65625 62.160156 C 106.9375 62.800781 107.335938 63.285156 107.84375 63.613281 C 108.371094 63.9375 108.972656 64.101562 109.652344 64.101562 Z M 109.652344 64.101562 "/>
<g clip-path="url(#clip3)" clip-rule="nonzero">
<path style=" stroke:none;fill-rule:nonzero;fill:rgb(0%,44.705883%,73.725492%);fill-opacity:1;" d="M 3.542969 98.816406 L 3.542969 146.445312 L 51.011719 146.445312 L 51.011719 98.816406 Z M 3.542969 98.816406 "/>
<path style="fill:none;stroke-width:2.6667;stroke-linecap:square;stroke-linejoin:miter;stroke:rgb(0%,0%,0%);stroke-opacity:1;stroke-miterlimit:10;" d="M 142.664554 279.333229 L 142.664554 410.66974 L 11.335536 410.66974 L 11.335536 279.333229 Z M 142.664554 279.333229 " transform="matrix(0.354251,0,0,0.35545,0,0)"/>
</g>
<path style="fill:none;stroke-width:1.5;stroke-linecap:butt;stroke-linejoin:miter;stroke:rgb(0%,0%,0%);stroke-opacity:1;stroke-miterlimit:4;" d="M 143.998795 344.248698 L 210.997545 344.248698 " transform="matrix(0.354251,0,0,0.35545,0,0)"/>
<path style="fill:none;stroke-width:1.5;stroke-linecap:butt;stroke-linejoin:miter;stroke:rgb(0%,0%,0%);stroke-opacity:1;stroke-miterlimit:4;" d="M 210.997545 344.248698 L 277.996295 344.248698 " transform="matrix(0.354251,0,0,0.35545,0,0)"/>
<g clip-path="url(#clip4)" clip-rule="nonzero">
<path style=" stroke:none;fill-rule:nonzero;fill:rgb(0%,44.705883%,73.725492%);fill-opacity:1;" d="M 98.480469 98.816406 L 98.480469 146.445312 L 145.953125 146.445312 L 145.953125 98.816406 Z M 98.480469 98.816406 "/>
<path style="fill:none;stroke-width:2.6667;stroke-linecap:square;stroke-linejoin:miter;stroke:rgb(0%,0%,0%);stroke-opacity:1;stroke-miterlimit:10;" d="M 410.67058 279.333229 L 410.67058 410.66974 L 279.330536 410.66974 L 279.330536 279.333229 Z M 410.67058 279.333229 " transform="matrix(0.354251,0,0,0.35545,0,0)"/>
</g>
<path style="fill:none;stroke-width:1.5;stroke-linecap:butt;stroke-linejoin:miter;stroke:rgb(0%,0%,0%);stroke-opacity:1;stroke-miterlimit:4;" d="M 412.004821 344.248698 L 479.003571 344.248698 " transform="matrix(0.354251,0,0,0.35545,0,0)"/>
<path style=" stroke:none;fill-rule:nonzero;fill:rgb(0%,0%,0%);fill-opacity:1;" d="M 53.441406 146.429688 L 53.441406 130.242188 C 53.441406 129.078125 53.613281 128.105469 53.953125 127.324219 C 54.308594 126.527344 54.839844 125.929688 55.546875 125.53125 C 56.269531 125.117188 57.175781 124.914062 58.269531 124.914062 C 59.105469 124.914062 59.8125 125.046875 60.394531 125.316406 C 60.988281 125.574219 61.46875 125.914062 61.839844 126.339844 C 62.207031 126.769531 62.476562 127.242188 62.644531 127.769531 C 62.816406 128.296875 62.902344 128.816406 62.902344 129.328125 C 62.902344 130.007812 62.78125 130.59375 62.539062 131.074219 C 62.3125 131.558594 62.03125 131.949219 61.691406 132.25 C 61.363281 132.53125 61.046875 132.730469 60.734375 132.847656 L 60.734375 132.929688 C 61.316406 133.074219 61.832031 133.328125 62.285156 133.699219 C 62.753906 134.070312 63.113281 134.53125 63.367188 135.085938 C 63.636719 135.640625 63.773438 136.265625 63.773438 136.960938 C 63.773438 138.042969 63.554688 138.972656 63.113281 139.757812 C 62.6875 140.539062 62.101562 141.136719 61.351562 141.546875 C 60.597656 141.960938 59.742188 142.164062 58.777344 142.164062 C 58.226562 142.164062 57.707031 142.082031 57.226562 141.910156 C 56.757812 141.753906 56.355469 141.53125 56.015625 141.25 C 55.675781 140.964844 55.414062 140.660156 55.226562 140.332031 L 55.144531 140.332031 L 55.226562 141.761719 L 55.226562 146.429688 Z M 58.691406 140.523438 C 59.402344 140.523438 59.996094 140.375 60.476562 140.074219 C 60.960938 139.777344 61.320312 139.363281 61.5625 138.839844 C 61.816406 138.3125 61.945312 137.722656 61.945312 137.070312 C 61.945312 136.03125 61.660156 135.25 61.09375 134.722656 C 60.527344 134.183594 59.71875 133.914062 58.671875 133.914062 L 56.929688 133.914062 L 56.929688 132.269531 L 58.140625 132.269531 C 58.847656 132.269531 59.414062 132.140625 59.839844 131.886719 C 60.265625 131.617188 60.578125 131.269531 60.777344 130.839844 C 60.972656 130.414062 61.074219 129.953125 61.074219 129.453125 C 61.074219 128.601562 60.824219 127.90625 60.328125 127.363281 C 59.847656 126.824219 59.160156 126.554688 58.269531 126.554688 C 57.558594 126.554688 56.972656 126.695312 56.503906 126.980469 C 56.035156 127.265625 55.6875 127.683594 55.460938 128.238281 C 55.234375 128.78125 55.121094 129.449219 55.121094 130.242188 L 55.121094 136.128906 C 55.121094 136.984375 55.257812 137.742188 55.527344 138.414062 C 55.796875 139.066406 56.191406 139.585938 56.714844 139.96875 C 57.253906 140.339844 57.914062 140.523438 58.691406 140.523438 Z M 58.691406 140.523438 "/>
<path style=" stroke:none;fill-rule:nonzero;fill:rgb(0%,0%,0%);fill-opacity:1;" d="M 85.378906 138.453125 L 85.378906 137.113281 L 91.859375 126.554688 L 93.730469 126.554688 L 93.730469 136.75 L 95.578125 136.75 L 95.578125 138.453125 L 93.730469 138.453125 L 93.730469 141.824219 L 91.964844 141.824219 L 91.964844 138.453125 Z M 91.964844 136.75 L 91.964844 129.539062 L 91.882812 129.539062 L 87.503906 136.75 Z M 91.964844 136.75 "/>
<path style=" stroke:none;fill-rule:nonzero;fill:rgb(0%,0%,0%);fill-opacity:1;" d="M 148.382812 146.429688 L 148.382812 130.242188 C 148.382812 129.078125 148.550781 128.105469 148.890625 127.324219 C 149.246094 126.527344 149.777344 125.929688 150.488281 125.53125 C 151.210938 125.117188 152.117188 124.914062 153.207031 124.914062 C 154.042969 124.914062 154.75 125.046875 155.332031 125.316406 C 155.929688 125.574219 156.410156 125.914062 156.777344 126.339844 C 157.144531 126.769531 157.414062 127.242188 157.585938 127.769531 C 157.753906 128.296875 157.839844 128.816406 157.839844 129.328125 C 157.839844 130.007812 157.71875 130.59375 157.480469 131.074219 C 157.253906 131.558594 156.96875 131.949219 156.628906 132.25 C 156.304688 132.53125 155.984375 132.730469 155.671875 132.847656 L 155.671875 132.929688 C 156.253906 133.074219 156.769531 133.328125 157.222656 133.699219 C 157.691406 134.070312 158.054688 134.53125 158.308594 135.085938 C 158.578125 135.640625 158.710938 136.265625 158.710938 136.960938 C 158.710938 138.042969 158.492188 138.972656 158.054688 139.757812 C 157.628906 140.539062 157.039062 141.136719 156.289062 141.546875 C 155.539062 141.960938 154.679688 142.164062 153.71875 142.164062 C 153.164062 142.164062 152.648438 142.082031 152.164062 141.910156 C 151.699219 141.753906 151.292969 141.53125 150.953125 141.25 C 150.613281 140.964844 150.351562 140.660156 150.167969 140.332031 L 150.082031 140.332031 L 150.167969 141.761719 L 150.167969 146.429688 Z M 153.632812 140.523438 C 154.339844 140.523438 154.9375 140.375 155.417969 140.074219 C 155.898438 139.777344 156.261719 139.363281 156.5 138.839844 C 156.757812 138.3125 156.882812 137.722656 156.882812 137.070312 C 156.882812 136.03125 156.601562 135.25 156.035156 134.722656 C 155.46875 134.183594 154.660156 133.914062 153.609375 133.914062 L 151.867188 133.914062 L 151.867188 132.269531 L 153.078125 132.269531 C 153.789062 132.269531 154.355469 132.140625 154.78125 131.886719 C 155.207031 131.617188 155.515625 131.269531 155.714844 130.839844 C 155.914062 130.414062 156.011719 129.953125 156.011719 129.453125 C 156.011719 128.601562 155.765625 127.90625 155.269531 127.363281 C 154.789062 126.824219 154.101562 126.554688 153.207031 126.554688 C 152.5 126.554688 151.910156 126.695312 151.441406 126.980469 C 150.976562 127.265625 150.628906 127.683594 150.402344 128.238281 C 150.175781 128.78125 150.0625 129.449219 150.0625 130.242188 L 150.0625 136.128906 C 150.0625 136.984375 150.195312 137.742188 150.464844 138.414062 C 150.734375 139.066406 151.132812 139.585938 151.65625 139.96875 C 152.195312 140.339844 152.851562 140.523438 153.632812 140.523438 Z M 153.632812 140.523438 "/>
<g clip-path="url(#clip5)" clip-rule="nonzero">
<path style="fill:none;stroke-width:1.5;stroke-linecap:butt;stroke-linejoin:miter;stroke:rgb(0%,0%,0%);stroke-opacity:1;stroke-miterlimit:4;" d="M 483.072455 287.49849 C 478.496339 289.498594 479.014598 298.004531 479.014598 298.004531 L 479.014598 392.99849 C 479.014598 392.99849 478.518393 400.504375 483.072455 402.504479 " transform="matrix(0.354251,0,0,0.35545,0,0)"/>
</g>
</g>
</svg>
