<?xml version="1.0" encoding="UTF-8"?>
<svg xmlns="http://www.w3.org/2000/svg" xmlns:xlink="http://www.w3.org/1999/xlink" width="73px" height="50px" viewBox="0 0 73 50" version="1.1">
<defs>
<clipPath id="clip1">
  <path d="M 3.230469 3.246094 L 46.511719 3.246094 L 46.511719 46.753906 L 3.230469 46.753906 Z M 3.230469 3.246094 "/>
</clipPath>
</defs>
<g id="surface1">
<g clip-path="url(#clip1)" clip-rule="nonzero">
<path style=" stroke:none;fill-rule:nonzero;fill:rgb(0%,44.705883%,73.725492%);fill-opacity:1;" d="M 3.230469 3.246094 L 3.230469 46.753906 L 46.511719 46.753906 L 46.511719 3.246094 Z M 3.230469 3.246094 "/>
<path style="fill:none;stroke-width:2.6667;stroke-linecap:square;stroke-linejoin:miter;stroke:rgb(0%,0%,0%);stroke-opacity:1;stroke-miterlimit:10;" d="M 142.664919 11.333438 L 142.664919 142.666562 L 11.331443 142.666562 L 11.331443 11.333438 Z M 142.664919 11.333438 " transform="matrix(0.323009,0,0,0.324675,0,0)"/>
</g>
<path style="fill:none;stroke-width:1.5;stroke-linecap:butt;stroke-linejoin:miter;stroke:rgb(0%,0%,0%);stroke-opacity:1;stroke-miterlimit:4;" d="M 143.995184 76.254063 L 211.004281 76.254063 " transform="matrix(0.323009,0,0,0.324675,0,0)"/>
<path style="fill:none;stroke-width:1.5;stroke-linecap:butt;stroke-linejoin:miter;stroke:rgb(0%,0%,0%);stroke-opacity:1;stroke-miterlimit:4;" d="M 215.07973 19.502656 C 210.496361 21.499844 211.016374 30.005938 211.016374 30.005938 L 211.016374 125.004688 C 211.016374 125.004688 210.520548 132.500156 215.07973 134.497344 " transform="matrix(0.323009,0,0,0.324675,0,0)"/>
<path style=" stroke:none;fill-rule:nonzero;fill:rgb(0%,0%,0%);fill-opacity:1;" d="M 48.730469 46.414062 L 48.730469 31.628906 C 48.730469 30.566406 48.886719 29.675781 49.195312 28.960938 C 49.519531 28.234375 50.003906 27.6875 50.648438 27.324219 C 51.308594 26.949219 52.132812 26.757812 53.128906 26.757812 C 53.890625 26.757812 54.539062 26.882812 55.066406 27.128906 C 55.609375 27.363281 56.050781 27.675781 56.386719 28.066406 C 56.722656 28.453125 56.964844 28.890625 57.121094 29.371094 C 57.277344 29.851562 57.355469 30.324219 57.355469 30.792969 C 57.355469 31.414062 57.246094 31.949219 57.023438 32.390625 C 56.816406 32.832031 56.558594 33.1875 56.25 33.460938 C 55.953125 33.722656 55.660156 33.902344 55.378906 34.007812 L 55.378906 34.085938 C 55.90625 34.214844 56.378906 34.449219 56.792969 34.785156 C 57.21875 35.125 57.546875 35.546875 57.78125 36.050781 C 58.027344 36.558594 58.148438 37.128906 58.148438 37.765625 C 58.148438 38.753906 57.949219 39.605469 57.546875 40.316406 C 57.160156 41.03125 56.625 41.578125 55.9375 41.953125 C 55.253906 42.332031 54.472656 42.519531 53.59375 42.519531 C 53.089844 42.519531 52.617188 42.441406 52.179688 42.285156 C 51.753906 42.144531 51.386719 41.941406 51.074219 41.683594 C 50.765625 41.421875 50.527344 41.144531 50.359375 40.84375 L 50.28125 40.84375 L 50.359375 42.148438 L 50.359375 46.414062 Z M 53.515625 41.019531 C 54.164062 41.019531 54.707031 40.882812 55.144531 40.609375 C 55.585938 40.335938 55.914062 39.960938 56.132812 39.480469 C 56.367188 39 56.480469 38.460938 56.480469 37.863281 C 56.480469 36.914062 56.222656 36.203125 55.707031 35.722656 C 55.191406 35.226562 54.453125 34.980469 53.496094 34.980469 L 51.90625 34.980469 L 51.90625 33.480469 L 53.011719 33.480469 C 53.660156 33.480469 54.175781 33.363281 54.5625 33.128906 C 54.949219 32.882812 55.234375 32.566406 55.417969 32.175781 C 55.597656 31.785156 55.6875 31.363281 55.6875 30.910156 C 55.6875 30.128906 55.460938 29.492188 55.007812 29 C 54.570312 28.507812 53.941406 28.257812 53.128906 28.257812 C 52.484375 28.257812 51.945312 28.390625 51.519531 28.648438 C 51.09375 28.910156 50.777344 29.292969 50.570312 29.796875 C 50.363281 30.292969 50.261719 30.902344 50.261719 31.628906 L 50.261719 37.007812 C 50.261719 37.785156 50.382812 38.480469 50.628906 39.089844 C 50.875 39.6875 51.234375 40.164062 51.714844 40.511719 C 52.207031 40.851562 52.804688 41.019531 53.515625 41.019531 Z M 53.515625 41.019531 "/>
</g>
</svg>
