<?xml version="1.0" encoding="UTF-8"?>
<svg xmlns="http://www.w3.org/2000/svg" xmlns:xlink="http://www.w3.org/1999/xlink" width="421px" height="50px" viewBox="0 0 421 50" version="1.1">
<defs>
<clipPath id="clip1">
  <path d="M 264.015625 3.246094 L 307.480469 3.246094 L 307.480469 46.753906 L 264.015625 46.753906 Z M 264.015625 3.246094 "/>
</clipPath>
<clipPath id="clip2">
  <path d="M 350.941406 3.246094 L 394.402344 3.246094 L 394.402344 46.753906 L 350.941406 46.753906 Z M 350.941406 3.246094 "/>
</clipPath>
</defs>
<g id="surface1">
<path style="fill-rule:nonzero;fill:rgb(0%,65.098041%,31.764707%);fill-opacity:1;stroke-width:2.6667;stroke-linecap:butt;stroke-linejoin:round;stroke:rgb(0%,0%,0%);stroke-opacity:1;stroke-miterlimit:10;" d="M 9.996103 77 L 10.140625 81.379375 L 10.574191 85.746719 L 11.284757 90.065938 L 12.284368 94.337031 L 13.560978 98.535938 L 15.102546 102.638594 L 16.909071 106.632969 L 18.980552 110.495 L 21.292904 114.224688 L 23.846125 117.785938 L 26.628173 121.17875 L 29.627004 124.379063 L 32.818531 127.374844 L 36.214797 130.154063 L 39.779673 132.704688 L 43.501113 135.026719 L 47.367076 137.084063 L 51.365517 138.900781 L 55.460307 140.440781 L 59.663487 141.716094 L 63.926885 142.714687 L 68.250501 143.424531 L 72.622291 143.857656 L 76.99408 144.002031 L 81.377913 143.857656 L 85.749703 143.424531 L 90.073319 142.714687 L 94.336717 141.716094 L 98.539898 140.440781 L 102.634687 138.900781 L 106.633128 137.084063 L 110.499091 135.026719 L 114.220531 132.704688 L 117.785407 130.154063 L 121.181673 127.374844 L 124.3732 124.379063 L 127.372031 121.17875 L 130.154079 117.785938 L 132.7073 114.224688 L 135.019652 110.495 L 137.091133 106.632969 L 138.897658 102.638594 L 140.439226 98.535938 L 141.715837 94.337031 L 142.715447 90.065938 L 143.426013 85.746719 L 143.859579 81.379375 L 144.004101 77 L 143.859579 72.620625 L 143.426013 68.253281 L 142.715447 63.934063 L 141.715837 59.662969 L 140.439226 55.464063 L 138.897658 51.361406 L 137.091133 47.367031 L 135.019652 43.505 L 132.7073 39.775312 L 130.154079 36.214063 L 127.372031 32.82125 L 124.3732 29.620938 L 121.181673 26.625156 L 117.785407 23.845938 L 114.220531 21.295313 L 110.499091 18.973281 L 106.633128 16.903906 L 102.634687 15.099219 L 98.539898 13.559219 L 94.336717 12.283906 L 90.073319 11.285312 L 85.749703 10.575469 L 81.377913 10.142344 L 76.99408 9.997969 L 72.622291 10.142344 L 68.250501 10.575469 L 63.926885 11.285312 L 59.663487 12.283906 L 55.460307 13.559219 L 51.365517 15.099219 L 47.367076 16.903906 L 43.501113 18.973281 L 39.779673 21.295313 L 36.214797 23.845938 L 32.818531 26.625156 L 29.627004 29.620938 L 26.628173 32.82125 L 23.846125 36.214063 L 21.292904 39.775312 L 18.980552 43.505 L 16.909071 47.367031 L 15.102546 51.361406 L 13.560978 55.464063 L 12.284368 59.662969 L 11.284757 63.934063 L 10.574191 68.253281 L 10.140625 72.620625 Z M 9.996103 77 " transform="matrix(0.324345,0,0,0.324675,0,0)"/>
<path style="fill:none;stroke-width:1.5;stroke-linecap:butt;stroke-linejoin:miter;stroke:rgb(0%,0%,0%);stroke-opacity:1;stroke-miterlimit:4;" d="M 144.004101 76.254063 L 211.002078 76.254063 " transform="matrix(0.324345,0,0,0.324675,0,0)"/>
<path style="fill:none;stroke-width:1.5;stroke-linecap:butt;stroke-linejoin:miter;stroke:rgb(0%,0%,0%);stroke-opacity:1;stroke-miterlimit:4;" d="M 211.002078 76.254063 L 278.000056 76.254063 " transform="matrix(0.324345,0,0,0.324675,0,0)"/>
<path style="fill-rule:nonzero;fill:rgb(0%,65.098041%,31.764707%);fill-opacity:1;stroke-width:2.6667;stroke-linecap:butt;stroke-linejoin:round;stroke:rgb(0%,0%,0%);stroke-opacity:1;stroke-miterlimit:10;" d="M 278.000056 77 L 278.144578 81.379375 L 278.578144 85.746719 L 279.28871 90.065938 L 280.28832 94.337031 L 281.552887 98.535938 L 283.094455 102.638594 L 284.913023 106.632969 L 286.972461 110.495 L 289.296856 114.224688 L 291.850078 117.785938 L 294.632126 121.17875 L 297.618913 124.379063 L 300.822484 127.374844 L 304.21875 130.154063 L 307.771582 132.704688 L 311.505066 135.026719 L 315.371029 137.084063 L 319.357427 138.900781 L 323.464259 140.440781 L 327.655396 141.716094 L 331.930838 142.714687 L 336.254454 143.424531 L 340.6142 143.857656 L 344.998033 144.002031 L 349.381866 143.857656 L 353.741612 143.424531 L 358.065228 142.714687 L 362.34067 141.716094 L 366.531807 140.440781 L 370.638639 138.900781 L 374.637081 137.084063 L 378.503043 135.026719 L 382.224484 132.704688 L 385.789359 130.154063 L 389.173582 127.374844 L 392.377153 124.379063 L 395.375984 121.17875 L 398.158031 117.785938 L 400.711253 114.224688 L 403.023605 110.495 L 405.095086 106.632969 L 406.901611 102.638594 L 408.443178 98.535938 L 409.719789 94.337031 L 410.707356 90.065938 L 411.429966 85.746719 L 411.851488 81.379375 L 411.99601 77 L 411.851488 72.620625 L 411.429966 68.253281 L 410.707356 63.934063 L 409.719789 59.662969 L 408.443178 55.464063 L 406.901611 51.361406 L 405.095086 47.367031 L 403.023605 43.505 L 400.711253 39.775312 L 398.158031 36.214063 L 395.375984 32.82125 L 392.377153 29.620938 L 389.173582 26.625156 L 385.789359 23.845938 L 382.224484 21.295313 L 378.503043 18.973281 L 374.637081 16.903906 L 370.638639 15.099219 L 366.531807 13.559219 L 362.34067 12.283906 L 358.065228 11.285312 L 353.741612 10.575469 L 349.381866 10.142344 L 344.998033 9.997969 L 340.6142 10.142344 L 336.254454 10.575469 L 331.930838 11.285312 L 327.655396 12.283906 L 323.464259 13.559219 L 319.357427 15.099219 L 315.371029 16.903906 L 311.505066 18.973281 L 307.771582 21.295313 L 304.21875 23.845938 L 300.822484 26.625156 L 297.618913 29.620938 L 294.632126 32.82125 L 291.850078 36.214063 L 289.296856 39.775312 L 286.972461 43.505 L 284.913023 47.367031 L 283.094455 51.361406 L 281.552887 55.464063 L 280.28832 59.662969 L 279.28871 63.934063 L 278.578144 68.253281 L 278.144578 72.620625 Z M 278.000056 77 " transform="matrix(0.324345,0,0,0.324675,0,0)"/>
<path style="fill:none;stroke-width:1.5;stroke-linecap:butt;stroke-linejoin:miter;stroke:rgb(0%,0%,0%);stroke-opacity:1;stroke-miterlimit:4;" d="M 411.99601 76.254063 L 478.993988 76.254063 " transform="matrix(0.324345,0,0,0.324675,0,0)"/>
<path style="fill:none;stroke-width:1.5;stroke-linecap:butt;stroke-linejoin:miter;stroke:rgb(0%,0%,0%);stroke-opacity:1;stroke-miterlimit:4;" d="M 478.993988 76.254063 L 546.004008 76.254063 " transform="matrix(0.324345,0,0,0.324675,0,0)"/>
<path style="fill-rule:nonzero;fill:rgb(0%,65.098041%,31.764707%);fill-opacity:1;stroke-width:2.6667;stroke-linecap:butt;stroke-linejoin:round;stroke:rgb(0%,0%,0%);stroke-opacity:1;stroke-miterlimit:10;" d="M 546.004008 77 L 546.14853 81.379375 L 546.570053 85.746719 L 547.292663 90.065938 L 548.280229 94.337031 L 549.55684 98.535938 L 551.098408 102.638594 L 552.904932 106.632969 L 554.976414 110.495 L 557.288766 114.224688 L 559.841987 117.785938 L 562.624035 121.17875 L 565.622866 124.379063 L 568.826436 127.374844 L 572.210659 130.154063 L 575.775534 132.704688 L 579.496975 135.026719 L 583.362938 137.084063 L 587.361379 138.900781 L 591.468212 140.440781 L 595.659349 141.716094 L 599.934791 142.714687 L 604.258406 143.424531 L 608.618152 143.857656 L 613.001986 144.002031 L 617.385819 143.857656 L 621.745565 143.424531 L 626.069181 142.714687 L 630.344622 141.716094 L 634.535759 140.440781 L 638.642592 138.900781 L 642.62899 137.084063 L 646.494952 135.026719 L 650.228437 132.704688 L 653.781269 130.154063 L 657.177535 127.374844 L 660.381105 124.379063 L 663.367893 121.17875 L 666.149941 117.785938 L 668.703162 114.224688 L 671.027557 110.495 L 673.086995 106.632969 L 674.905563 102.638594 L 676.447131 98.535938 L 677.711698 94.337031 L 678.711309 90.065938 L 679.421875 85.746719 L 679.855441 81.379375 L 679.999963 77 L 679.855441 72.620625 L 679.421875 68.253281 L 678.711309 63.934063 L 677.711698 59.662969 L 676.447131 55.464063 L 674.905563 51.361406 L 673.086995 47.367031 L 671.027557 43.505 L 668.703162 39.775312 L 666.149941 36.214063 L 663.367893 32.82125 L 660.381105 29.620938 L 657.177535 26.625156 L 653.781269 23.845938 L 650.228437 21.295313 L 646.494952 18.973281 L 642.62899 16.903906 L 638.642592 15.099219 L 634.535759 13.559219 L 630.344622 12.283906 L 626.069181 11.285312 L 621.745565 10.575469 L 617.385819 10.142344 L 613.001986 9.997969 L 608.618152 10.142344 L 604.258406 10.575469 L 599.934791 11.285312 L 595.659349 12.283906 L 591.468212 13.559219 L 587.361379 15.099219 L 583.362938 16.903906 L 579.496975 18.973281 L 575.775534 21.295313 L 572.210659 23.845938 L 568.826436 26.625156 L 565.622866 29.620938 L 562.624035 32.82125 L 559.841987 36.214063 L 557.288766 39.775312 L 554.976414 43.505 L 552.904932 47.367031 L 551.098408 51.361406 L 549.55684 55.464063 L 548.280229 59.662969 L 547.292663 63.934063 L 546.570053 68.253281 L 546.14853 72.620625 Z M 546.004008 77 " transform="matrix(0.324345,0,0,0.324675,0,0)"/>
<path style="fill:none;stroke-width:1.5;stroke-linecap:butt;stroke-linejoin:miter;stroke:rgb(0%,0%,0%);stroke-opacity:1;stroke-miterlimit:4;" d="M 679.999963 76.254063 L 746.99794 76.254063 " transform="matrix(0.324345,0,0,0.324675,0,0)"/>
<path style="fill:none;stroke-width:1.5;stroke-linecap:butt;stroke-linejoin:miter;stroke:rgb(0%,0%,0%);stroke-opacity:1;stroke-miterlimit:4;" d="M 746.99794 76.254063 L 813.995917 76.254063 " transform="matrix(0.324345,0,0,0.324675,0,0)"/>
<g clip-path="url(#clip1)" clip-rule="nonzero">
<path style=" stroke:none;fill-rule:nonzero;fill:rgb(0%,44.705883%,73.725492%);fill-opacity:1;" d="M 264.015625 3.246094 L 264.015625 46.753906 L 307.480469 46.753906 L 307.480469 3.246094 Z M 264.015625 3.246094 "/>
<path style="fill:none;stroke-width:2.6667;stroke-linecap:square;stroke-linejoin:miter;stroke:rgb(0%,0%,0%);stroke-opacity:1;stroke-miterlimit:10;" d="M 946.667087 11.333438 L 946.667087 142.666562 L 815.332746 142.666562 L 815.332746 11.333438 Z M 946.667087 11.333438 " transform="matrix(0.324345,0,0,0.324675,0,0)"/>
</g>
<path style="fill:none;stroke-width:1.5;stroke-linecap:butt;stroke-linejoin:miter;stroke:rgb(0%,0%,0%);stroke-opacity:1;stroke-miterlimit:4;" d="M 948.003916 76.254063 L 1015.001893 76.254063 " transform="matrix(0.324345,0,0,0.324675,0,0)"/>
<path style="fill:none;stroke-width:1.5;stroke-linecap:butt;stroke-linejoin:miter;stroke:rgb(0%,0%,0%);stroke-opacity:1;stroke-miterlimit:4;" d="M 1015.001893 76.254063 L 1081.99987 76.254063 " transform="matrix(0.324345,0,0,0.324675,0,0)"/>
<g clip-path="url(#clip2)" clip-rule="nonzero">
<path style=" stroke:none;fill-rule:nonzero;fill:rgb(0%,44.705883%,73.725492%);fill-opacity:1;" d="M 350.941406 3.246094 L 350.941406 46.753906 L 394.402344 46.753906 L 394.402344 3.246094 Z M 350.941406 3.246094 "/>
<path style="fill:none;stroke-width:2.6667;stroke-linecap:square;stroke-linejoin:miter;stroke:rgb(0%,0%,0%);stroke-opacity:1;stroke-miterlimit:10;" d="M 1214.67104 11.333438 L 1214.67104 142.666562 L 1083.324655 142.666562 L 1083.324655 11.333438 Z M 1214.67104 11.333438 " transform="matrix(0.324345,0,0,0.324675,0,0)"/>
</g>
<path style="fill:none;stroke-width:1.5;stroke-linecap:butt;stroke-linejoin:miter;stroke:rgb(0%,0%,0%);stroke-opacity:1;stroke-miterlimit:4;" d="M 1215.995825 76.254063 L 1283.005845 76.254063 " transform="matrix(0.324345,0,0,0.324675,0,0)"/>
<path style=" stroke:none;fill-rule:nonzero;fill:rgb(0%,0%,0%);fill-opacity:1;" d="M 52.140625 42.519531 C 51.515625 42.519531 50.933594 42.402344 50.386719 42.167969 C 49.84375 41.921875 49.363281 41.570312 48.949219 41.117188 C 48.53125 40.648438 48.207031 40.078125 47.976562 39.402344 C 47.742188 38.726562 47.625 37.953125 47.625 37.085938 C 47.625 35.929688 47.824219 34.949219 48.226562 34.144531 C 48.644531 33.335938 49.195312 32.722656 49.882812 32.292969 C 50.570312 31.863281 51.320312 31.648438 52.140625 31.648438 C 52.671875 31.648438 53.152344 31.734375 53.578125 31.902344 C 54.019531 32.058594 54.398438 32.273438 54.707031 32.546875 C 55.03125 32.816406 55.273438 33.125 55.429688 33.460938 L 55.507812 33.460938 L 55.507812 31.960938 L 57.0625 31.960938 L 57.0625 39.1875 C 57.0625 39.667969 57.148438 40.050781 57.316406 40.335938 C 57.496094 40.625 57.796875 40.765625 58.210938 40.765625 C 58.355469 40.765625 58.484375 40.746094 58.601562 40.707031 C 58.71875 40.667969 58.847656 40.617188 58.988281 40.550781 L 58.988281 42.226562 C 58.859375 42.277344 58.710938 42.3125 58.542969 42.324219 C 58.386719 42.351562 58.222656 42.363281 58.054688 42.363281 C 57.417969 42.363281 56.894531 42.246094 56.480469 42.011719 C 56.0625 41.765625 55.777344 41.285156 55.621094 40.570312 L 55.546875 40.570312 C 55.246094 41.183594 54.792969 41.664062 54.183594 42.011719 C 53.574219 42.351562 52.890625 42.519531 52.140625 42.519531 Z M 52.390625 41.019531 C 53.003906 41.019531 53.539062 40.871094 54.007812 40.570312 C 54.476562 40.273438 54.839844 39.832031 55.097656 39.246094 C 55.371094 38.648438 55.507812 37.921875 55.507812 37.066406 C 55.507812 36.222656 55.371094 35.507812 55.097656 34.921875 C 54.839844 34.335938 54.476562 33.894531 54.007812 33.597656 C 53.539062 33.296875 53.003906 33.148438 52.390625 33.148438 C 51.769531 33.148438 51.21875 33.296875 50.738281 33.597656 C 50.269531 33.894531 49.90625 34.335938 49.648438 34.921875 C 49.390625 35.507812 49.257812 36.226562 49.257812 37.085938 C 49.257812 37.929688 49.390625 38.648438 49.648438 39.246094 C 49.90625 39.832031 50.269531 40.273438 50.738281 40.570312 C 51.21875 40.871094 51.769531 41.019531 52.390625 41.019531 Z M 52.390625 41.019531 "/>
<path style=" stroke:none;fill-rule:nonzero;fill:rgb(0%,0%,0%);fill-opacity:1;" d="M 78.558594 42.207031 L 78.558594 40.492188 C 78.976562 40.167969 79.371094 39.855469 79.746094 39.558594 C 80.136719 39.246094 80.507812 38.949219 80.855469 38.664062 C 81.207031 38.363281 81.539062 38.070312 81.847656 37.785156 C 82.160156 37.5 82.453125 37.222656 82.726562 36.949219 C 82.996094 36.675781 83.242188 36.402344 83.464844 36.128906 C 83.816406 35.703125 84.105469 35.277344 84.339844 34.863281 C 84.585938 34.433594 84.769531 34 84.886719 33.558594 C 85 33.117188 85.058594 32.667969 85.058594 32.214844 C 85.058594 31.605469 84.960938 31.105469 84.769531 30.714844 C 84.585938 30.3125 84.308594 30.011719 83.929688 29.816406 C 83.566406 29.609375 83.113281 29.507812 82.570312 29.507812 C 82.078125 29.507812 81.648438 29.617188 81.285156 29.835938 C 80.921875 30.046875 80.636719 30.34375 80.429688 30.734375 C 80.222656 31.125 80.097656 31.570312 80.058594 32.078125 L 78.464844 31.902344 C 78.488281 31.371094 78.59375 30.871094 78.773438 30.402344 C 78.96875 29.921875 79.234375 29.5 79.570312 29.136719 C 79.921875 28.773438 80.34375 28.488281 80.835938 28.277344 C 81.34375 28.058594 81.925781 27.949219 82.589844 27.949219 C 83.457031 27.949219 84.199219 28.109375 84.808594 28.433594 C 85.429688 28.746094 85.902344 29.203125 86.226562 29.796875 C 86.566406 30.394531 86.734375 31.117188 86.734375 31.960938 C 86.734375 32.597656 86.648438 33.214844 86.480469 33.8125 C 86.3125 34.410156 86.070312 34.980469 85.761719 35.527344 C 85.449219 36.070312 85.074219 36.597656 84.632812 37.105469 C 84.425781 37.363281 84.199219 37.617188 83.949219 37.863281 C 83.71875 38.097656 83.472656 38.335938 83.210938 38.585938 C 82.964844 38.816406 82.707031 39.050781 82.433594 39.285156 C 82.160156 39.507812 81.875 39.734375 81.578125 39.96875 C 81.292969 40.1875 81 40.410156 80.699219 40.628906 L 86.871094 40.628906 L 86.871094 42.207031 Z M 78.558594 42.207031 "/>
<path style=" stroke:none;fill-rule:nonzero;fill:rgb(0%,0%,0%);fill-opacity:1;" d="M 139.0625 42.519531 C 138.441406 42.519531 137.855469 42.402344 137.3125 42.167969 C 136.769531 41.921875 136.289062 41.570312 135.871094 41.117188 C 135.457031 40.648438 135.132812 40.078125 134.898438 39.402344 C 134.664062 38.726562 134.550781 37.953125 134.550781 37.085938 C 134.550781 35.929688 134.75 34.949219 135.152344 34.144531 C 135.566406 33.335938 136.117188 32.722656 136.804688 32.292969 C 137.492188 31.863281 138.246094 31.648438 139.0625 31.648438 C 139.597656 31.648438 140.074219 31.734375 140.503906 31.902344 C 140.945312 32.058594 141.320312 32.273438 141.632812 32.546875 C 141.957031 32.816406 142.195312 33.125 142.351562 33.460938 L 142.429688 33.460938 L 142.429688 31.960938 L 143.988281 31.960938 L 143.988281 39.1875 C 143.988281 39.667969 144.070312 40.050781 144.242188 40.335938 C 144.421875 40.625 144.71875 40.765625 145.136719 40.765625 C 145.277344 40.765625 145.40625 40.746094 145.523438 40.707031 C 145.640625 40.667969 145.769531 40.617188 145.914062 40.550781 L 145.914062 42.226562 C 145.785156 42.277344 145.636719 42.3125 145.464844 42.324219 C 145.3125 42.351562 145.148438 42.363281 144.980469 42.363281 C 144.34375 42.363281 143.820312 42.246094 143.402344 42.011719 C 142.988281 41.765625 142.703125 41.285156 142.546875 40.570312 L 142.46875 40.570312 C 142.171875 41.183594 141.71875 41.664062 141.105469 42.011719 C 140.496094 42.351562 139.816406 42.519531 139.0625 42.519531 Z M 139.316406 41.019531 C 139.925781 41.019531 140.464844 40.871094 140.933594 40.570312 C 141.398438 40.273438 141.761719 39.832031 142.023438 39.246094 C 142.292969 38.648438 142.429688 37.921875 142.429688 37.066406 C 142.429688 36.222656 142.292969 35.507812 142.023438 34.921875 C 141.761719 34.335938 141.398438 33.894531 140.933594 33.597656 C 140.464844 33.296875 139.925781 33.148438 139.316406 33.148438 C 138.695312 33.148438 138.144531 33.296875 137.664062 33.597656 C 137.195312 33.894531 136.832031 34.335938 136.574219 34.921875 C 136.3125 35.507812 136.183594 36.226562 136.183594 37.085938 C 136.183594 37.929688 136.3125 38.648438 136.574219 39.246094 C 136.832031 39.832031 137.195312 40.273438 137.664062 40.570312 C 138.144531 40.871094 138.695312 41.019531 139.316406 41.019531 Z M 139.316406 41.019531 "/>
<path style=" stroke:none;fill-rule:nonzero;fill:rgb(0%,0%,0%);fill-opacity:1;" d="M 166.132812 42.207031 L 166.132812 40.492188 C 166.546875 40.167969 166.945312 39.855469 167.320312 39.558594 C 167.710938 39.246094 168.078125 38.949219 168.429688 38.664062 C 168.78125 38.363281 169.109375 38.070312 169.421875 37.785156 C 169.734375 37.5 170.027344 37.222656 170.296875 36.949219 C 170.570312 36.675781 170.816406 36.402344 171.039062 36.128906 C 171.386719 35.703125 171.679688 35.277344 171.914062 34.863281 C 172.160156 34.433594 172.339844 34 172.457031 33.558594 C 172.574219 33.117188 172.632812 32.667969 172.632812 32.214844 C 172.632812 31.605469 172.535156 31.105469 172.339844 30.714844 C 172.160156 30.3125 171.882812 30.011719 171.503906 29.816406 C 171.140625 29.609375 170.6875 29.507812 170.140625 29.507812 C 169.648438 29.507812 169.222656 29.617188 168.859375 29.835938 C 168.496094 30.046875 168.210938 30.34375 168 30.734375 C 167.792969 31.125 167.671875 31.570312 167.632812 32.078125 L 166.035156 31.902344 C 166.0625 31.371094 166.164062 30.871094 166.347656 30.402344 C 166.542969 29.921875 166.808594 29.5 167.144531 29.136719 C 167.496094 28.773438 167.917969 28.488281 168.410156 28.277344 C 168.917969 28.058594 169.5 27.949219 170.160156 27.949219 C 171.03125 27.949219 171.769531 28.109375 172.378906 28.433594 C 173.003906 28.746094 173.476562 29.203125 173.800781 29.796875 C 174.136719 30.394531 174.308594 31.117188 174.308594 31.960938 C 174.308594 32.597656 174.222656 33.214844 174.054688 33.8125 C 173.886719 34.410156 173.644531 34.980469 173.332031 35.527344 C 173.023438 36.070312 172.644531 36.597656 172.207031 37.105469 C 171.996094 37.363281 171.769531 37.617188 171.523438 37.863281 C 171.289062 38.097656 171.042969 38.335938 170.785156 38.585938 C 170.539062 38.816406 170.277344 39.050781 170.007812 39.285156 C 169.734375 39.507812 169.449219 39.734375 169.148438 39.96875 C 168.863281 40.1875 168.574219 40.410156 168.273438 40.628906 L 174.441406 40.628906 L 174.441406 42.207031 Z M 166.132812 42.207031 "/>
<path style=" stroke:none;fill-rule:nonzero;fill:rgb(0%,0%,0%);fill-opacity:1;" d="M 252.019531 39.128906 L 252.019531 37.902344 L 257.953125 28.257812 L 259.667969 28.257812 L 259.667969 37.570312 L 261.359375 37.570312 L 261.359375 39.128906 L 259.667969 39.128906 L 259.667969 42.207031 L 258.050781 42.207031 L 258.050781 39.128906 Z M 258.050781 37.570312 L 258.050781 30.988281 L 257.972656 30.988281 L 253.964844 37.570312 Z M 258.050781 37.570312 "/>
<path style=" stroke:none;fill-rule:nonzero;fill:rgb(0%,0%,0%);fill-opacity:1;" d="M 225.988281 42.519531 C 225.367188 42.519531 224.78125 42.402344 224.238281 42.167969 C 223.691406 41.921875 223.210938 41.570312 222.796875 41.117188 C 222.382812 40.648438 222.058594 40.078125 221.824219 39.402344 C 221.589844 38.726562 221.472656 37.953125 221.472656 37.085938 C 221.472656 35.929688 221.675781 34.949219 222.078125 34.144531 C 222.492188 33.335938 223.042969 32.722656 223.730469 32.292969 C 224.417969 31.863281 225.171875 31.648438 225.988281 31.648438 C 226.519531 31.648438 227 31.734375 227.429688 31.902344 C 227.871094 32.058594 228.246094 32.273438 228.558594 32.546875 C 228.882812 32.816406 229.121094 33.125 229.277344 33.460938 L 229.355469 33.460938 L 229.355469 31.960938 L 230.910156 31.960938 L 230.910156 39.1875 C 230.910156 39.667969 230.996094 40.050781 231.164062 40.335938 C 231.347656 40.625 231.644531 40.765625 232.058594 40.765625 C 232.203125 40.765625 232.332031 40.746094 232.449219 40.707031 C 232.566406 40.667969 232.695312 40.617188 232.839844 40.550781 L 232.839844 42.226562 C 232.707031 42.277344 232.558594 42.3125 232.390625 42.324219 C 232.234375 42.351562 232.074219 42.363281 231.90625 42.363281 C 231.269531 42.363281 230.742188 42.246094 230.328125 42.011719 C 229.914062 41.765625 229.628906 41.285156 229.472656 40.570312 L 229.394531 40.570312 C 229.09375 41.183594 228.640625 41.664062 228.03125 42.011719 C 227.421875 42.351562 226.742188 42.519531 225.988281 42.519531 Z M 226.242188 41.019531 C 226.851562 41.019531 227.390625 40.871094 227.855469 40.570312 C 228.324219 40.273438 228.6875 39.832031 228.945312 39.246094 C 229.21875 38.648438 229.355469 37.921875 229.355469 37.066406 C 229.355469 36.222656 229.21875 35.507812 228.945312 34.921875 C 228.6875 34.335938 228.324219 33.894531 227.855469 33.597656 C 227.390625 33.296875 226.851562 33.148438 226.242188 33.148438 C 225.617188 33.148438 225.066406 33.296875 224.585938 33.597656 C 224.121094 33.894531 223.757812 34.335938 223.496094 34.921875 C 223.238281 35.507812 223.109375 36.226562 223.109375 37.085938 C 223.109375 37.929688 223.238281 38.648438 223.496094 39.246094 C 223.757812 39.832031 224.121094 40.273438 224.585938 40.570312 C 225.066406 40.871094 225.617188 41.019531 226.242188 41.019531 Z M 226.242188 41.019531 "/>
<path style=" stroke:none;fill-rule:nonzero;fill:rgb(0%,0%,0%);fill-opacity:1;" d="M 338.945312 39.128906 L 338.945312 37.902344 L 344.878906 28.257812 L 346.59375 28.257812 L 346.59375 37.570312 L 348.285156 37.570312 L 348.285156 39.128906 L 346.59375 39.128906 L 346.59375 42.207031 L 344.976562 42.207031 L 344.976562 39.128906 Z M 344.976562 37.570312 L 344.976562 30.988281 L 344.898438 30.988281 L 340.890625 37.570312 Z M 344.976562 37.570312 "/>
<path style=" stroke:none;fill-rule:nonzero;fill:rgb(0%,0%,0%);fill-opacity:1;" d="M 309.703125 46.414062 L 309.703125 31.628906 C 309.703125 30.566406 309.859375 29.675781 310.171875 28.960938 C 310.496094 28.234375 310.984375 27.6875 311.632812 27.324219 C 312.292969 26.949219 313.125 26.757812 314.121094 26.757812 C 314.886719 26.757812 315.535156 26.882812 316.070312 27.128906 C 316.613281 27.363281 317.054688 27.675781 317.390625 28.066406 C 317.730469 28.453125 317.976562 28.890625 318.132812 29.371094 C 318.285156 29.851562 318.363281 30.324219 318.363281 30.792969 C 318.363281 31.414062 318.253906 31.949219 318.035156 32.390625 C 317.828125 32.832031 317.566406 33.1875 317.253906 33.460938 C 316.957031 33.722656 316.664062 33.902344 316.378906 34.007812 L 316.378906 34.085938 C 316.910156 34.214844 317.386719 34.449219 317.800781 34.785156 C 318.230469 35.125 318.558594 35.546875 318.792969 36.050781 C 319.039062 36.558594 319.164062 37.128906 319.164062 37.765625 C 319.164062 38.753906 318.960938 39.605469 318.558594 40.316406 C 318.171875 41.03125 317.632812 41.578125 316.945312 41.953125 C 316.257812 42.332031 315.472656 42.519531 314.589844 42.519531 C 314.082031 42.519531 313.609375 42.441406 313.167969 42.285156 C 312.742188 42.144531 312.371094 41.941406 312.058594 41.683594 C 311.75 41.421875 311.507812 41.144531 311.339844 40.84375 L 311.261719 40.84375 L 311.339844 42.148438 L 311.339844 46.414062 Z M 314.511719 41.019531 C 315.160156 41.019531 315.707031 40.882812 316.144531 40.609375 C 316.585938 40.335938 316.917969 39.960938 317.140625 39.480469 C 317.371094 39 317.488281 38.460938 317.488281 37.863281 C 317.488281 36.914062 317.230469 36.203125 316.710938 35.722656 C 316.191406 35.226562 315.453125 34.980469 314.492188 34.980469 L 312.894531 34.980469 L 312.894531 33.480469 L 314.003906 33.480469 C 314.65625 33.480469 315.171875 33.363281 315.5625 33.128906 C 315.953125 32.882812 316.238281 32.566406 316.417969 32.175781 C 316.601562 31.785156 316.691406 31.363281 316.691406 30.910156 C 316.691406 30.128906 316.464844 29.492188 316.011719 29 C 315.570312 28.507812 314.941406 28.257812 314.121094 28.257812 C 313.472656 28.257812 312.933594 28.390625 312.507812 28.648438 C 312.078125 28.910156 311.761719 29.292969 311.554688 29.796875 C 311.347656 30.292969 311.242188 30.902344 311.242188 31.628906 L 311.242188 37.007812 C 311.242188 37.785156 311.367188 38.480469 311.613281 39.089844 C 311.859375 39.6875 312.222656 40.164062 312.703125 40.511719 C 313.195312 40.851562 313.796875 41.019531 314.511719 41.019531 Z M 314.511719 41.019531 "/>
<path style=" stroke:none;fill-rule:nonzero;fill:rgb(0%,0%,0%);fill-opacity:1;" d="M 396.953125 46.414062 L 396.953125 31.628906 C 396.953125 30.566406 397.109375 29.675781 397.421875 28.960938 C 397.746094 28.234375 398.230469 27.6875 398.878906 27.324219 C 399.542969 26.949219 400.371094 26.757812 401.371094 26.757812 C 402.136719 26.757812 402.785156 26.882812 403.316406 27.128906 C 403.863281 27.363281 404.300781 27.675781 404.640625 28.066406 C 404.976562 28.453125 405.222656 28.890625 405.378906 29.371094 C 405.535156 29.851562 405.613281 30.324219 405.613281 30.792969 C 405.613281 31.414062 405.503906 31.949219 405.28125 32.390625 C 405.074219 32.832031 404.816406 33.1875 404.503906 33.460938 C 404.207031 33.722656 403.914062 33.902344 403.628906 34.007812 L 403.628906 34.085938 C 404.160156 34.214844 404.632812 34.449219 405.046875 34.785156 C 405.476562 35.125 405.808594 35.546875 406.042969 36.050781 C 406.289062 36.558594 406.410156 37.128906 406.410156 37.765625 C 406.410156 38.753906 406.210938 39.605469 405.808594 40.316406 C 405.417969 41.03125 404.878906 41.578125 404.191406 41.953125 C 403.503906 42.332031 402.71875 42.519531 401.835938 42.519531 C 401.332031 42.519531 400.859375 42.441406 400.417969 42.285156 C 399.988281 42.144531 399.621094 41.941406 399.308594 41.683594 C 398.996094 41.421875 398.757812 41.144531 398.585938 40.84375 L 398.511719 40.84375 L 398.585938 42.148438 L 398.585938 46.414062 Z M 401.761719 41.019531 C 402.410156 41.019531 402.953125 40.882812 403.394531 40.609375 C 403.835938 40.335938 404.167969 39.960938 404.386719 39.480469 C 404.621094 39 404.738281 38.460938 404.738281 37.863281 C 404.738281 36.914062 404.476562 36.203125 403.957031 35.722656 C 403.441406 35.226562 402.699219 34.980469 401.742188 34.980469 L 400.144531 34.980469 L 400.144531 33.480469 L 401.253906 33.480469 C 401.902344 33.480469 402.421875 33.363281 402.8125 33.128906 C 403.199219 32.882812 403.484375 32.566406 403.667969 32.175781 C 403.847656 31.785156 403.9375 31.363281 403.9375 30.910156 C 403.9375 30.128906 403.710938 29.492188 403.257812 29 C 402.816406 28.507812 402.1875 28.257812 401.371094 28.257812 C 400.722656 28.257812 400.183594 28.390625 399.753906 28.648438 C 399.328125 28.910156 399.007812 29.292969 398.800781 29.796875 C 398.59375 30.292969 398.492188 30.902344 398.492188 31.628906 L 398.492188 37.007812 C 398.492188 37.785156 398.613281 38.480469 398.859375 39.089844 C 399.105469 39.6875 399.46875 40.164062 399.949219 40.511719 C 400.441406 40.851562 401.046875 41.019531 401.761719 41.019531 Z M 401.761719 41.019531 "/>
<path style="fill:none;stroke-width:1.5;stroke-linecap:butt;stroke-linejoin:miter;stroke:rgb(0%,0%,0%);stroke-opacity:1;stroke-miterlimit:4;" d="M 1287.064504 19.502656 C 1282.500019 21.499844 1283.017889 30.005938 1283.017889 30.005938 L 1283.017889 125.004688 C 1283.017889 125.004688 1282.524106 132.500156 1287.064504 134.497344 " transform="matrix(0.324345,0,0,0.324675,0,0)"/>
</g>
</svg>
