<?xml version="1.0" encoding="UTF-8"?>
<svg xmlns="http://www.w3.org/2000/svg" xmlns:xlink="http://www.w3.org/1999/xlink" width="482px" height="200px" viewBox="0 0 481 200" version="1.1">
<defs>
<clipPath id="clip1">
  <path d="M 333.46875 105.496094 L 374.3125 105.496094 L 374.3125 146.414062 L 333.46875 146.414062 Z M 333.46875 105.496094 "/>
</clipPath>
<clipPath id="clip2">
  <path d="M 415.160156 105.496094 L 456.003906 105.496094 L 456.003906 146.414062 L 415.160156 146.414062 Z M 415.160156 105.496094 "/>
</clipPath>
</defs>
<g id="surface1">
<path style="fill-rule:nonzero;fill:rgb(0%,65.098041%,31.764707%);fill-opacity:1;stroke-width:2.6667;stroke-linecap:butt;stroke-linejoin:round;stroke:rgb(0%,0%,0%);stroke-opacity:1;stroke-miterlimit:10;" d="M 9.995777 77.000879 L 10.149558 81.376074 L 10.572456 85.75127 L 11.290102 90.075293 L 12.276865 94.335352 L 13.558374 98.531445 L 15.096186 102.637988 L 16.903115 106.629395 L 18.979161 110.505664 L 21.285879 114.228418 L 23.848899 117.784863 L 26.629775 121.175 L 29.628508 124.373242 L 32.819468 127.366797 L 36.215469 130.155664 L 39.778067 132.714258 L 43.494445 135.029785 L 47.364605 137.089453 L 51.362916 138.906055 L 55.463747 140.441211 L 59.654285 141.720508 L 63.934528 142.718359 L 68.253216 143.421973 L 72.623165 143.856934 L 77.005928 143.997656 L 81.375877 143.856934 L 85.745826 143.421973 L 90.077329 142.718359 L 94.344757 141.720508 L 98.535294 140.441211 L 102.636126 138.906055 L 106.634437 137.089453 L 110.504597 135.029785 L 114.220975 132.714258 L 117.783573 130.155664 L 121.179574 127.366797 L 124.370533 124.373242 L 127.369267 121.175 L 130.150143 117.784863 L 132.713163 114.228418 L 135.01988 110.505664 L 137.095926 106.629395 L 138.902855 102.637988 L 140.440667 98.531445 L 141.722177 94.335352 L 142.70894 90.075293 L 143.426585 85.75127 L 143.862299 81.376074 L 144.003265 77.000879 L 143.862299 72.612891 L 143.426585 68.250488 L 142.70894 63.926465 L 141.722177 59.653613 L 140.440667 55.45752 L 138.902855 51.36377 L 137.095926 47.372363 L 135.01988 43.496094 L 132.713163 39.77334 L 130.150143 36.216895 L 127.369267 32.826758 L 124.370533 29.628516 L 121.179574 26.622168 L 117.783573 23.846094 L 114.220975 21.2875 L 110.504597 18.971973 L 106.634437 16.912305 L 102.636126 15.095703 L 98.535294 13.560547 L 94.344757 12.28125 L 90.077329 11.283398 L 85.745826 10.566992 L 81.375877 10.144824 L 77.005928 10.004102 L 72.623165 10.144824 L 68.253216 10.566992 L 63.934528 11.283398 L 59.654285 12.28125 L 55.463747 13.560547 L 51.362916 15.095703 L 47.364605 16.912305 L 43.494445 18.971973 L 39.778067 21.2875 L 36.215469 23.846094 L 32.819468 26.622168 L 29.628508 29.628516 L 26.629775 32.826758 L 23.848899 36.216895 L 21.285879 39.77334 L 18.979161 43.496094 L 16.903115 47.372363 L 15.096186 51.36377 L 13.558374 55.45752 L 12.276865 59.653613 L 11.290102 63.926465 L 10.572456 68.250488 L 10.149558 72.612891 Z M 9.995777 77.000879 " transform="matrix(0.304816,0,0,0.305344,0,0)"/>
<path style="fill-rule:nonzero;fill:rgb(0%,65.098041%,31.764707%);fill-opacity:1;stroke-width:2.6667;stroke-linecap:butt;stroke-linejoin:round;stroke:rgb(0%,0%,0%);stroke-opacity:1;stroke-miterlimit:10;" d="M 9.995777 411.997559 L 10.149558 416.385547 L 10.572456 420.747949 L 11.290102 425.071973 L 12.276865 429.344824 L 13.558374 433.540918 L 15.096186 437.634668 L 16.903115 441.638867 L 18.979161 445.502344 L 21.285879 449.225098 L 23.848899 452.781543 L 26.629775 456.17168 L 29.628508 459.369922 L 32.819468 462.37627 L 36.215469 465.152344 L 39.778067 467.710938 L 43.494445 470.026465 L 47.364605 472.086133 L 51.362916 473.902734 L 55.463747 475.437891 L 59.654285 476.717187 L 63.934528 477.715039 L 68.253216 478.431445 L 72.623165 478.853613 L 77.005928 478.994336 L 81.375877 478.853613 L 85.745826 478.431445 L 90.077329 477.715039 L 94.344757 476.717187 L 98.535294 475.437891 L 102.636126 473.902734 L 106.634437 472.086133 L 110.504597 470.026465 L 114.220975 467.710938 L 117.783573 465.152344 L 121.179574 462.37627 L 124.370533 459.369922 L 127.369267 456.17168 L 130.150143 452.781543 L 132.713163 449.225098 L 135.01988 445.502344 L 137.095926 441.638867 L 138.902855 437.634668 L 140.440667 433.540918 L 141.722177 429.344824 L 142.70894 425.071973 L 143.426585 420.747949 L 143.862299 416.385547 L 144.003265 411.997559 L 143.862299 407.622363 L 143.426585 403.259961 L 142.70894 398.923145 L 141.722177 394.663086 L 140.440667 390.466992 L 138.902855 386.360449 L 137.095926 382.369043 L 135.01988 378.505566 L 132.713163 374.782812 L 130.150143 371.213574 L 127.369267 367.823438 L 124.370533 364.625195 L 121.179574 361.631641 L 117.783573 358.842773 L 114.220975 356.296973 L 110.504597 353.981445 L 106.634437 351.908984 L 102.636126 350.105176 L 98.535294 348.557227 L 94.344757 347.27793 L 90.077329 346.292871 L 85.745826 345.576465 L 81.375877 345.141504 L 77.005928 345.000781 L 72.623165 345.141504 L 68.253216 345.576465 L 63.934528 346.292871 L 59.654285 347.27793 L 55.463747 348.557227 L 51.362916 350.105176 L 47.364605 351.908984 L 43.494445 353.981445 L 39.778067 356.296973 L 36.215469 358.842773 L 32.819468 361.631641 L 29.628508 364.625195 L 26.629775 367.823438 L 23.848899 371.213574 L 21.285879 374.782812 L 18.979161 378.505566 L 16.903115 382.369043 L 15.096186 386.360449 L 13.558374 390.466992 L 12.276865 394.663086 L 11.290102 398.923145 L 10.572456 403.259961 L 10.149558 407.622363 Z M 9.995777 411.997559 " transform="matrix(0.304816,0,0,0.305344,0,0)"/>
<path style=" stroke:none;fill-rule:nonzero;fill:rgb(0%,0%,0%);fill-opacity:1;" d="M 54.488281 133.421875 C 53.902344 133.421875 53.351562 133.3125 52.839844 133.09375 C 52.328125 132.859375 51.878906 132.53125 51.488281 132.105469 C 51.097656 131.664062 50.792969 131.125 50.574219 130.492188 C 50.351562 129.855469 50.242188 129.128906 50.242188 128.3125 C 50.242188 127.222656 50.433594 126.300781 50.8125 125.546875 C 51.199219 124.789062 51.71875 124.207031 52.367188 123.804688 C 53.011719 123.402344 53.71875 123.199219 54.488281 123.199219 C 54.988281 123.199219 55.4375 123.28125 55.839844 123.4375 C 56.253906 123.585938 56.609375 123.785156 56.902344 124.042969 C 57.207031 124.300781 57.429688 124.585938 57.578125 124.902344 L 57.652344 124.902344 L 57.652344 123.492188 L 59.113281 123.492188 L 59.113281 130.289062 C 59.113281 130.742188 59.191406 131.101562 59.351562 131.371094 C 59.523438 131.640625 59.804688 131.773438 60.191406 131.773438 C 60.328125 131.773438 60.449219 131.753906 60.558594 131.71875 C 60.667969 131.683594 60.789062 131.632812 60.925781 131.574219 L 60.925781 133.148438 C 60.800781 133.195312 60.664062 133.226562 60.503906 133.238281 C 60.359375 133.265625 60.207031 133.277344 60.046875 133.277344 C 59.449219 133.277344 58.957031 133.167969 58.566406 132.945312 C 58.175781 132.714844 57.90625 132.261719 57.761719 131.589844 L 57.6875 131.589844 C 57.40625 132.164062 56.980469 132.617188 56.40625 132.945312 C 55.835938 133.265625 55.195312 133.421875 54.488281 133.421875 Z M 54.722656 132.011719 C 55.296875 132.011719 55.804688 131.871094 56.242188 131.589844 C 56.679688 131.308594 57.023438 130.894531 57.265625 130.34375 C 57.523438 129.785156 57.652344 129.097656 57.652344 128.292969 C 57.652344 127.5 57.523438 126.828125 57.265625 126.277344 C 57.023438 125.726562 56.679688 125.3125 56.242188 125.03125 C 55.804688 124.75 55.296875 124.609375 54.722656 124.609375 C 54.140625 124.609375 53.621094 124.75 53.171875 125.03125 C 52.730469 125.3125 52.390625 125.726562 52.144531 126.277344 C 51.902344 126.828125 51.78125 127.503906 51.78125 128.3125 C 51.78125 129.105469 51.902344 129.785156 52.144531 130.34375 C 52.390625 130.894531 52.730469 131.308594 53.171875 131.589844 C 53.621094 131.871094 54.140625 132.011719 54.722656 132.011719 Z M 54.722656 132.011719 "/>
<path style=" stroke:none;fill-rule:nonzero;fill:rgb(0%,0%,0%);fill-opacity:1;" d="M 81.753906 108.398438 L 81.753906 106.785156 C 82.144531 106.480469 82.515625 106.1875 82.871094 105.90625 C 83.238281 105.613281 83.585938 105.332031 83.914062 105.0625 C 84.242188 104.78125 84.554688 104.507812 84.847656 104.238281 C 85.140625 103.96875 85.414062 103.707031 85.667969 103.449219 C 85.925781 103.195312 86.15625 102.9375 86.363281 102.679688 C 86.695312 102.277344 86.96875 101.882812 87.1875 101.488281 C 87.417969 101.085938 87.589844 100.679688 87.699219 100.261719 C 87.808594 99.847656 87.863281 99.425781 87.863281 99 C 87.863281 98.425781 87.773438 97.953125 87.589844 97.585938 C 87.417969 97.210938 87.15625 96.929688 86.804688 96.746094 C 86.460938 96.550781 86.035156 96.453125 85.523438 96.453125 C 85.058594 96.453125 84.65625 96.554688 84.316406 96.761719 C 83.972656 96.957031 83.707031 97.238281 83.511719 97.605469 C 83.316406 97.972656 83.199219 98.394531 83.164062 98.871094 L 81.664062 98.707031 C 81.6875 98.203125 81.785156 97.734375 81.957031 97.292969 C 82.140625 96.84375 82.390625 96.445312 82.707031 96.105469 C 83.035156 95.761719 83.433594 95.492188 83.894531 95.296875 C 84.371094 95.089844 84.917969 94.984375 85.542969 94.984375 C 86.359375 94.984375 87.054688 95.140625 87.625 95.445312 C 88.210938 95.738281 88.65625 96.164062 88.960938 96.726562 C 89.277344 97.289062 89.4375 97.964844 89.4375 98.761719 C 89.4375 99.359375 89.359375 99.9375 89.199219 100.5 C 89.039062 101.0625 88.816406 101.601562 88.523438 102.113281 C 88.230469 102.625 87.875 103.121094 87.460938 103.597656 C 87.265625 103.839844 87.054688 104.078125 86.820312 104.3125 C 86.601562 104.53125 86.371094 104.757812 86.125 104.988281 C 85.894531 105.210938 85.652344 105.429688 85.394531 105.648438 C 85.140625 105.855469 84.871094 106.070312 84.589844 106.289062 C 84.320312 106.496094 84.046875 106.707031 83.765625 106.914062 L 89.566406 106.914062 L 89.566406 108.398438 Z M 81.753906 108.398438 "/>
<path style="fill-rule:nonzero;fill:rgb(0%,65.098041%,31.764707%);fill-opacity:1;stroke-width:2.6667;stroke-linecap:butt;stroke-linejoin:round;stroke:rgb(0%,0%,0%);stroke-opacity:1;stroke-miterlimit:10;" d="M 283.995403 243.002441 L 284.149185 247.377637 L 284.572083 251.740039 L 285.289728 256.076855 L 286.289306 260.336914 L 287.558001 264.533008 L 289.095813 268.639551 L 290.915557 272.630957 L 292.978788 276.494434 L 295.298321 280.217187 L 297.848525 283.786426 L 300.629402 287.176562 L 303.628135 290.374805 L 306.819094 293.368359 L 310.215096 296.157227 L 313.777693 298.703027 L 317.494072 301.018555 L 321.364231 303.091016 L 325.362542 304.894824 L 329.463374 306.442773 L 333.653911 307.72207 L 337.934154 308.707129 L 342.252842 309.423535 L 346.622791 309.858496 L 351.005555 309.999219 L 355.388319 309.858496 L 359.745452 309.423535 L 364.076956 308.707129 L 368.344383 307.72207 L 372.534921 306.442773 L 376.635752 304.894824 L 380.634063 303.091016 L 384.504223 301.018555 L 388.220602 298.703027 L 391.783199 296.157227 L 395.1792 293.368359 L 398.37016 290.374805 L 401.368893 287.176562 L 404.149769 283.786426 L 406.712789 280.217187 L 409.019507 276.494434 L 411.095553 272.630957 L 412.902482 268.639551 L 414.440294 264.533008 L 415.721804 260.336914 L 416.708566 256.076855 L 417.426212 251.740039 L 417.861925 247.377637 L 418.002891 243.002441 L 417.861925 238.614453 L 417.426212 234.252051 L 416.708566 229.928027 L 415.721804 225.655176 L 414.440294 221.459082 L 412.902482 217.365332 L 411.095553 213.361133 L 409.019507 209.497656 L 406.712789 205.774902 L 404.149769 202.218457 L 401.368893 198.82832 L 398.37016 195.630078 L 395.1792 192.62373 L 391.783199 189.847656 L 388.220602 187.289062 L 384.504223 184.973535 L 380.634063 182.913867 L 376.635752 181.097266 L 372.534921 179.562109 L 368.344383 178.282813 L 364.076956 177.284961 L 359.745452 176.568555 L 355.388319 176.146387 L 351.005555 176.005664 L 346.622791 176.146387 L 342.252842 176.568555 L 337.934154 177.284961 L 333.653911 178.282813 L 329.463374 179.562109 L 325.362542 181.097266 L 321.364231 182.913867 L 317.494072 184.973535 L 313.777693 187.289062 L 310.215096 189.847656 L 306.819094 192.62373 L 303.628135 195.630078 L 300.629402 198.82832 L 297.848525 202.218457 L 295.298321 205.774902 L 292.978788 209.497656 L 290.915557 213.361133 L 289.095813 217.365332 L 287.558001 221.459082 L 286.289306 225.655176 L 285.289728 229.928027 L 284.572083 234.252051 L 284.149185 238.614453 Z M 283.995403 243.002441 " transform="matrix(0.304816,0,0,0.305344,0,0)"/>
<path style="fill-rule:nonzero;fill:rgb(0%,65.098041%,31.764707%);fill-opacity:1;stroke-width:2.6667;stroke-linecap:butt;stroke-linejoin:round;stroke:rgb(0%,0%,0%);stroke-opacity:1;stroke-miterlimit:10;" d="M 283.995403 577.999121 L 284.149185 582.387109 L 284.572083 586.749512 L 285.289728 591.073535 L 286.289306 595.346387 L 287.558001 599.529688 L 289.095813 603.63623 L 290.915557 607.627637 L 292.978788 611.503906 L 295.298321 615.22666 L 297.848525 618.783105 L 300.629402 622.173242 L 303.628135 625.371484 L 306.819094 628.377832 L 310.215096 631.153906 L 313.777693 633.7125 L 317.494072 636.028027 L 321.364231 638.087695 L 325.362542 639.904297 L 329.463374 641.439453 L 333.653911 642.71875 L 337.934154 643.716602 L 342.252842 644.433008 L 346.622791 644.855176 L 351.005555 644.995898 L 355.388319 644.855176 L 359.745452 644.433008 L 364.076956 643.716602 L 368.344383 642.71875 L 372.534921 641.439453 L 376.635752 639.904297 L 380.634063 638.087695 L 384.504223 636.028027 L 388.220602 633.7125 L 391.783199 631.153906 L 395.1792 628.377832 L 398.37016 625.371484 L 401.368893 622.173242 L 404.149769 618.783105 L 406.712789 615.22666 L 409.019507 611.503906 L 411.095553 607.627637 L 412.902482 603.63623 L 414.440294 599.529688 L 415.721804 595.346387 L 416.708566 591.073535 L 417.426212 586.749512 L 417.861925 582.387109 L 418.002891 577.999121 L 417.861925 573.623926 L 417.426212 569.24873 L 416.708566 564.924707 L 415.721804 560.664648 L 414.440294 556.468555 L 412.902482 552.362012 L 411.095553 548.370605 L 409.019507 544.494336 L 406.712789 540.771582 L 404.149769 537.215137 L 401.368893 533.825 L 398.37016 530.626758 L 395.1792 527.633203 L 391.783199 524.844336 L 388.220602 522.285742 L 384.504223 519.970215 L 380.634063 517.910547 L 376.635752 516.093945 L 372.534921 514.558789 L 368.344383 513.279492 L 364.076956 512.281641 L 359.745452 511.578027 L 355.388319 511.143066 L 351.005555 511.002344 L 346.622791 511.143066 L 342.252842 511.578027 L 337.934154 512.281641 L 333.653911 513.279492 L 329.463374 514.558789 L 325.362542 516.093945 L 321.364231 517.910547 L 317.494072 519.970215 L 313.777693 522.285742 L 310.215096 524.844336 L 306.819094 527.633203 L 303.628135 530.626758 L 300.629402 533.825 L 297.848525 537.215137 L 295.298321 540.771582 L 292.978788 544.494336 L 290.915557 548.370605 L 289.095813 552.362012 L 287.558001 556.468555 L 286.289306 560.664648 L 285.289728 564.924707 L 284.572083 569.24873 L 284.149185 573.623926 Z M 283.995403 577.999121 " transform="matrix(0.304816,0,0,0.305344,0,0)"/>
<path style="fill-rule:nonzero;fill:rgb(0%,65.098041%,31.764707%);fill-opacity:1;stroke-width:2.6667;stroke-linecap:butt;stroke-linejoin:round;stroke:rgb(0%,0%,0%);stroke-opacity:1;stroke-miterlimit:10;" d="M 557.99503 412.496484 L 558.148811 416.884473 L 558.571709 421.246875 L 559.289355 425.570898 L 560.288933 429.84375 L 561.557627 434.039844 L 563.095439 438.146387 L 564.915183 442.137793 L 566.978414 446.00127 L 569.297947 449.724023 L 571.848152 453.293262 L 574.629028 456.670605 L 577.627761 459.881641 L 580.818721 462.875195 L 584.214722 465.65127 L 587.777319 468.209863 L 591.493698 470.525391 L 595.363858 472.585059 L 599.362169 474.40166 L 603.463 475.949609 L 607.653538 477.216113 L 611.933781 478.213965 L 616.252469 478.930371 L 620.622417 479.352539 L 625.005181 479.506055 L 629.387945 479.352539 L 633.745079 478.930371 L 638.076582 478.213965 L 642.34401 477.216113 L 646.534547 475.949609 L 650.635379 474.40166 L 654.63369 472.585059 L 658.503849 470.525391 L 662.220228 468.209863 L 665.782825 465.65127 L 669.178827 462.875195 L 672.369786 459.881641 L 675.368519 456.670605 L 678.149396 453.293262 L 680.712416 449.724023 L 683.019133 446.00127 L 685.095179 442.137793 L 686.902108 438.146387 L 688.43992 434.039844 L 689.72143 429.84375 L 690.708193 425.570898 L 691.425838 421.246875 L 691.861551 416.884473 L 692.002518 412.496484 L 691.861551 408.121289 L 691.425838 403.758887 L 690.708193 399.434863 L 689.72143 395.162012 L 688.43992 390.965918 L 686.902108 386.859375 L 685.095179 382.867969 L 683.019133 379.004492 L 680.712416 375.281738 L 678.149396 371.7125 L 675.368519 368.322363 L 672.369786 365.124121 L 669.178827 362.130566 L 665.782825 359.341699 L 662.220228 356.795898 L 658.503849 354.480371 L 654.63369 352.40791 L 650.635379 350.604102 L 646.534547 349.056152 L 642.34401 347.776855 L 638.076582 346.791797 L 633.745079 346.075391 L 629.387945 345.64043 L 625.005181 345.499707 L 620.622417 345.64043 L 616.252469 346.075391 L 611.933781 346.791797 L 607.653538 347.776855 L 603.463 349.056152 L 599.362169 350.604102 L 595.363858 352.40791 L 591.493698 354.480371 L 587.777319 356.795898 L 584.214722 359.341699 L 580.818721 362.130566 L 577.627761 365.124121 L 574.629028 368.322363 L 571.848152 371.7125 L 569.297947 375.281738 L 566.978414 379.004492 L 564.915183 382.867969 L 563.095439 386.859375 L 561.557627 390.965918 L 560.288933 395.162012 L 559.289355 399.434863 L 558.571709 403.758887 L 558.148811 408.121289 Z M 557.99503 412.496484 " transform="matrix(0.304816,0,0,0.305344,0,0)"/>
<path style="fill:none;stroke-width:1.5;stroke-linecap:butt;stroke-linejoin:miter;stroke:rgb(0%,0%,0%);stroke-opacity:1;stroke-miterlimit:4;" d="M 692.002518 411.754492 L 758.999854 411.754492 " transform="matrix(0.304816,0,0,0.305344,0,0)"/>
<path style="fill:none;stroke-width:1.5;stroke-linecap:butt;stroke-linejoin:miter;stroke:rgb(0%,0%,0%);stroke-opacity:1;stroke-miterlimit:4;" d="M 758.999854 411.754492 L 825.99719 411.754492 " transform="matrix(0.304816,0,0,0.305344,0,0)"/>
<path style="fill-rule:nonzero;fill:rgb(0%,65.098041%,31.764707%);fill-opacity:1;stroke-width:2.6667;stroke-linecap:butt;stroke-linejoin:round;stroke:rgb(0%,0%,0%);stroke-opacity:1;stroke-miterlimit:10;" d="M 825.99719 412.496484 L 826.138156 416.884473 L 826.57387 421.246875 L 827.291515 425.570898 L 828.278278 429.84375 L 829.559788 434.039844 L 831.097599 438.146387 L 832.904528 442.137793 L 834.980574 446.00127 L 837.287292 449.724023 L 839.850312 453.293262 L 842.631188 456.670605 L 845.629921 459.881641 L 848.820881 462.875195 L 852.216882 465.65127 L 855.77948 468.209863 L 859.495858 470.525391 L 863.366018 472.585059 L 867.364329 474.40166 L 871.46516 475.949609 L 875.655698 477.216113 L 879.923126 478.213965 L 884.254629 478.930371 L 888.611763 479.352539 L 892.994526 479.506055 L 897.37729 479.352539 L 901.747239 478.930371 L 906.065927 478.213965 L 910.34617 477.216113 L 914.536707 475.949609 L 918.637539 474.40166 L 922.63585 472.585059 L 926.50601 470.525391 L 930.222388 468.209863 L 933.784986 465.65127 L 937.180987 462.875195 L 940.371946 459.881641 L 943.37068 456.670605 L 946.151556 453.293262 L 948.701761 449.724023 L 951.021294 446.00127 L 953.084524 442.137793 L 954.904268 438.146387 L 956.44208 434.039844 L 957.710775 429.84375 L 958.710353 425.570898 L 959.427998 421.246875 L 959.850897 416.884473 L 960.004678 412.496484 L 959.850897 408.121289 L 959.427998 403.758887 L 958.710353 399.434863 L 957.710775 395.162012 L 956.44208 390.965918 L 954.904268 386.859375 L 953.084524 382.867969 L 951.021294 379.004492 L 948.701761 375.281738 L 946.151556 371.7125 L 943.37068 368.322363 L 940.371946 365.124121 L 937.180987 362.130566 L 933.784986 359.341699 L 930.222388 356.795898 L 926.50601 354.480371 L 922.63585 352.40791 L 918.637539 350.604102 L 914.536707 349.056152 L 910.34617 347.776855 L 906.065927 346.791797 L 901.747239 346.075391 L 897.37729 345.64043 L 892.994526 345.499707 L 888.611763 345.64043 L 884.254629 346.075391 L 879.923126 346.791797 L 875.655698 347.776855 L 871.46516 349.056152 L 867.364329 350.604102 L 863.366018 352.40791 L 859.495858 354.480371 L 855.77948 356.795898 L 852.216882 359.341699 L 848.820881 362.130566 L 845.629921 365.124121 L 842.631188 368.322363 L 839.850312 371.7125 L 837.287292 375.281738 L 834.980574 379.004492 L 832.904528 382.867969 L 831.097599 386.859375 L 829.559788 390.965918 L 828.278278 395.162012 L 827.291515 399.434863 L 826.57387 403.758887 L 826.138156 408.121289 Z M 825.99719 412.496484 " transform="matrix(0.304816,0,0,0.305344,0,0)"/>
<path style="fill:none;stroke-width:1.5;stroke-linecap:butt;stroke-linejoin:miter;stroke:rgb(0%,0%,0%);stroke-opacity:1;stroke-miterlimit:4;" d="M 960.004678 411.754492 L 1027.002014 411.754492 " transform="matrix(0.304816,0,0,0.305344,0,0)"/>
<path style="fill:none;stroke-width:1.5;stroke-linecap:butt;stroke-linejoin:miter;stroke:rgb(0%,0%,0%);stroke-opacity:1;stroke-miterlimit:4;" d="M 1027.002014 411.754492 L 1093.99935 411.754492 " transform="matrix(0.304816,0,0,0.305344,0,0)"/>
<g clip-path="url(#clip1)" clip-rule="nonzero">
<path style=" stroke:none;fill-rule:nonzero;fill:rgb(0%,44.705883%,73.725492%);fill-opacity:1;" d="M 333.46875 105.496094 L 333.46875 146.414062 L 374.3125 146.414062 L 374.3125 105.496094 Z M 333.46875 105.496094 "/>
<path style="fill:none;stroke-width:2.6667;stroke-linecap:square;stroke-linejoin:miter;stroke:rgb(0%,0%,0%);stroke-opacity:1;stroke-miterlimit:10;" d="M 1226.674068 346.830176 L 1226.674068 478.162793 L 1095.332121 478.162793 L 1095.332121 346.830176 Z M 1226.674068 346.830176 " transform="matrix(0.304816,0,0,0.305344,0,0)"/>
</g>
<path style="fill:none;stroke-width:1.5;stroke-linecap:butt;stroke-linejoin:miter;stroke:rgb(0%,0%,0%);stroke-opacity:1;stroke-miterlimit:4;" d="M 1227.994023 411.754492 L 1295.004174 411.754492 " transform="matrix(0.304816,0,0,0.305344,0,0)"/>
<path style="fill:none;stroke-width:1.5;stroke-linecap:butt;stroke-linejoin:miter;stroke:rgb(0%,0%,0%);stroke-opacity:1;stroke-miterlimit:4;" d="M 1295.004174 411.754492 L 1362.001511 411.754492 " transform="matrix(0.304816,0,0,0.305344,0,0)"/>
<g clip-path="url(#clip2)" clip-rule="nonzero">
<path style=" stroke:none;fill-rule:nonzero;fill:rgb(0%,44.705883%,73.725492%);fill-opacity:1;" d="M 415.160156 105.496094 L 415.160156 146.414062 L 456.003906 146.414062 L 456.003906 105.496094 Z M 415.160156 105.496094 "/>
<path style="fill:none;stroke-width:2.6667;stroke-linecap:square;stroke-linejoin:miter;stroke:rgb(0%,0%,0%);stroke-opacity:1;stroke-miterlimit:10;" d="M 1494.676228 346.830176 L 1494.676228 478.162793 L 1363.334281 478.162793 L 1363.334281 346.830176 Z M 1494.676228 346.830176 " transform="matrix(0.304816,0,0,0.305344,0,0)"/>
</g>
<path style="fill:none;stroke-width:1.5;stroke-linecap:butt;stroke-linejoin:miter;stroke:rgb(0%,0%,0%);stroke-opacity:1;stroke-miterlimit:4;" d="M 1495.996183 411.754492 L 1563.006334 411.754492 " transform="matrix(0.304816,0,0,0.305344,0,0)"/>
<path style="fill:none;stroke-width:1.5;stroke-linecap:butt;stroke-linejoin:miter;stroke:rgb(0%,0%,0%);stroke-opacity:1;stroke-miterlimit:4;" d="M 1567.068721 355.004883 C 1562.493731 357.000586 1563.01915 365.495117 1563.01915 365.495117 L 1563.01915 460.495703 C 1563.01915 460.495703 1562.519361 468.005176 1567.068721 470.000879 " transform="matrix(0.304816,0,0,0.305344,0,0)"/>
<path style=" stroke:none;fill-rule:nonzero;fill:rgb(0%,0%,0%);fill-opacity:1;" d="M 47.78125 45.789062 C 47.195312 45.789062 46.648438 45.679688 46.136719 45.460938 C 45.621094 45.226562 45.171875 44.898438 44.78125 44.46875 C 44.390625 44.03125 44.085938 43.492188 43.867188 42.859375 C 43.648438 42.222656 43.539062 41.496094 43.539062 40.679688 C 43.539062 39.589844 43.726562 38.667969 44.105469 37.910156 C 44.496094 37.152344 45.011719 36.574219 45.660156 36.171875 C 46.304688 35.769531 47.011719 35.566406 47.78125 35.566406 C 48.28125 35.566406 48.730469 35.644531 49.132812 35.804688 C 49.546875 35.949219 49.902344 36.152344 50.195312 36.410156 C 50.5 36.664062 50.726562 36.953125 50.871094 37.269531 L 50.945312 37.269531 L 50.945312 35.859375 L 52.40625 35.859375 L 52.40625 42.65625 C 52.40625 43.109375 52.488281 43.46875 52.644531 43.738281 C 52.816406 44.007812 53.097656 44.140625 53.488281 44.140625 C 53.621094 44.140625 53.742188 44.121094 53.851562 44.085938 C 53.960938 44.050781 54.085938 44 54.21875 43.9375 L 54.21875 45.515625 C 54.097656 45.5625 53.957031 45.59375 53.796875 45.605469 C 53.652344 45.628906 53.5 45.644531 53.339844 45.644531 C 52.742188 45.644531 52.25 45.53125 51.859375 45.3125 C 51.46875 45.082031 51.199219 44.628906 51.054688 43.957031 L 50.980469 43.957031 C 50.699219 44.53125 50.273438 44.984375 49.703125 45.3125 C 49.128906 45.628906 48.488281 45.789062 47.78125 45.789062 Z M 48.019531 44.378906 C 48.589844 44.378906 49.097656 44.238281 49.535156 43.957031 C 49.976562 43.675781 50.316406 43.261719 50.5625 42.710938 C 50.816406 42.148438 50.945312 41.464844 50.945312 40.660156 C 50.945312 39.867188 50.816406 39.195312 50.5625 38.644531 C 50.316406 38.09375 49.976562 37.679688 49.535156 37.398438 C 49.097656 37.117188 48.589844 36.976562 48.019531 36.976562 C 47.433594 36.976562 46.914062 37.117188 46.464844 37.398438 C 46.023438 37.679688 45.683594 38.09375 45.441406 38.644531 C 45.195312 39.195312 45.074219 39.871094 45.074219 40.679688 C 45.074219 41.472656 45.195312 42.148438 45.441406 42.710938 C 45.683594 43.261719 46.023438 43.675781 46.464844 43.957031 C 46.914062 44.238281 47.433594 44.378906 48.019531 44.378906 Z M 48.019531 44.378906 "/>
<path style=" stroke:none;fill-rule:nonzero;fill:rgb(0%,0%,0%);fill-opacity:1;" d="M 78.675781 80.597656 C 77.894531 80.597656 77.21875 80.445312 76.644531 80.140625 C 76.074219 79.835938 75.609375 79.4375 75.253906 78.949219 C 74.914062 78.472656 74.675781 77.949219 74.542969 77.375 C 74.40625 76.800781 74.339844 76.128906 74.339844 75.359375 C 74.339844 74.648438 74.425781 73.972656 74.597656 73.324219 C 74.78125 72.664062 75.023438 72.035156 75.328125 71.4375 C 75.632812 70.863281 75.992188 70.320312 76.40625 69.808594 C 76.835938 69.28125 77.304688 68.789062 77.816406 68.324219 C 78.328125 67.847656 78.875 67.40625 79.460938 67.003906 L 80.359375 68.195312 C 79.871094 68.488281 79.390625 68.84375 78.914062 69.257812 C 78.4375 69.660156 77.992188 70.105469 77.578125 70.59375 C 77.175781 71.082031 76.828125 71.601562 76.535156 72.152344 C 76.253906 72.691406 76.058594 73.234375 75.949219 73.785156 L 76.003906 73.820312 C 76.261719 73.40625 76.65625 73.054688 77.195312 72.777344 C 77.742188 72.496094 78.351562 72.355469 79.023438 72.355469 C 79.582031 72.355469 80.101562 72.457031 80.578125 72.664062 C 81.054688 72.859375 81.46875 73.140625 81.820312 73.507812 C 82.175781 73.863281 82.449219 74.289062 82.644531 74.789062 C 82.851562 75.28125 82.957031 75.816406 82.957031 76.402344 C 82.957031 77.148438 82.761719 77.839844 82.371094 78.472656 C 81.992188 79.109375 81.480469 79.621094 80.832031 80.011719 C 80.1875 80.402344 79.46875 80.597656 78.675781 80.597656 Z M 78.675781 79.113281 C 79.175781 79.113281 79.625 79.003906 80.027344 78.785156 C 80.445312 78.566406 80.773438 78.253906 81.015625 77.851562 C 81.261719 77.449219 81.382812 76.972656 81.382812 76.421875 C 81.382812 75.871094 81.261719 75.394531 81.015625 74.992188 C 80.773438 74.589844 80.445312 74.285156 80.027344 74.078125 C 79.625 73.855469 79.175781 73.746094 78.675781 73.746094 C 78.175781 73.746094 77.71875 73.855469 77.304688 74.078125 C 76.890625 74.285156 76.558594 74.589844 76.316406 74.992188 C 76.074219 75.394531 75.949219 75.871094 75.949219 76.421875 C 75.949219 76.972656 76.074219 77.449219 76.316406 77.851562 C 76.558594 78.253906 76.890625 78.566406 77.304688 78.785156 C 77.71875 79.003906 78.175781 79.113281 78.675781 79.113281 Z M 78.675781 79.113281 "/>
<path style=" stroke:none;fill-rule:nonzero;fill:rgb(0%,0%,0%);fill-opacity:1;" d="M 131.300781 97.699219 C 130.714844 97.699219 130.167969 97.585938 129.65625 97.367188 C 129.140625 97.136719 128.691406 96.804688 128.300781 96.378906 C 127.910156 95.9375 127.605469 95.402344 127.386719 94.765625 C 127.167969 94.132812 127.058594 93.40625 127.058594 92.585938 C 127.058594 91.5 127.246094 90.578125 127.625 89.820312 C 128.015625 89.0625 128.53125 88.484375 129.179688 88.078125 C 129.824219 87.675781 130.53125 87.476562 131.300781 87.476562 C 131.800781 87.476562 132.25 87.554688 132.652344 87.714844 C 133.070312 87.859375 133.421875 88.0625 133.714844 88.316406 C 134.019531 88.574219 134.246094 88.859375 134.390625 89.179688 L 134.464844 89.179688 L 134.464844 87.769531 L 135.925781 87.769531 L 135.925781 94.566406 C 135.925781 95.015625 136.007812 95.378906 136.164062 95.644531 C 136.335938 95.914062 136.617188 96.050781 137.007812 96.050781 C 137.140625 96.050781 137.261719 96.03125 137.371094 95.992188 C 137.480469 95.957031 137.605469 95.910156 137.738281 95.847656 L 137.738281 97.421875 C 137.617188 97.472656 137.476562 97.503906 137.316406 97.515625 C 137.171875 97.539062 137.019531 97.550781 136.859375 97.550781 C 136.261719 97.550781 135.769531 97.441406 135.378906 97.222656 C 134.988281 96.988281 134.71875 96.539062 134.574219 95.867188 L 134.5 95.867188 C 134.21875 96.441406 133.792969 96.890625 133.222656 97.222656 C 132.648438 97.539062 132.007812 97.699219 131.300781 97.699219 Z M 131.539062 96.285156 C 132.109375 96.285156 132.617188 96.148438 133.054688 95.867188 C 133.496094 95.585938 133.835938 95.167969 134.082031 94.621094 C 134.335938 94.058594 134.464844 93.375 134.464844 92.566406 C 134.464844 91.773438 134.335938 91.101562 134.082031 90.550781 C 133.835938 90.003906 133.496094 89.585938 133.054688 89.308594 C 132.617188 89.027344 132.109375 88.886719 131.539062 88.886719 C 130.953125 88.886719 130.433594 89.027344 129.984375 89.308594 C 129.542969 89.585938 129.203125 90.003906 128.960938 90.550781 C 128.714844 91.101562 128.59375 91.78125 128.59375 92.585938 C 128.59375 93.378906 128.714844 94.058594 128.960938 94.621094 C 129.203125 95.167969 129.542969 95.585938 129.984375 95.867188 C 130.433594 96.148438 130.953125 96.285156 131.539062 96.285156 Z M 131.539062 96.285156 "/>
<path style=" stroke:none;fill-rule:nonzero;fill:rgb(0%,0%,0%);fill-opacity:1;" d="M 138.007812 185.027344 C 137.421875 185.027344 136.871094 184.917969 136.359375 184.695312 C 135.847656 184.464844 135.398438 184.132812 135.007812 183.707031 C 134.617188 183.265625 134.3125 182.730469 134.09375 182.09375 C 133.875 181.460938 133.761719 180.734375 133.761719 179.914062 C 133.761719 178.828125 133.953125 177.90625 134.332031 177.148438 C 134.71875 176.390625 135.238281 175.8125 135.886719 175.40625 C 136.53125 175.003906 137.238281 174.804688 138.007812 174.804688 C 138.507812 174.804688 138.957031 174.882812 139.359375 175.042969 C 139.773438 175.1875 140.128906 175.390625 140.421875 175.644531 C 140.726562 175.902344 140.949219 176.1875 141.097656 176.507812 L 141.171875 176.507812 L 141.171875 175.097656 L 142.632812 175.097656 L 142.632812 181.894531 C 142.632812 182.34375 142.710938 182.707031 142.871094 182.972656 C 143.042969 183.242188 143.324219 183.378906 143.710938 183.378906 C 143.847656 183.378906 143.96875 183.359375 144.078125 183.320312 C 144.1875 183.285156 144.308594 183.238281 144.445312 183.175781 L 144.445312 184.75 C 144.320312 184.800781 144.183594 184.832031 144.023438 184.84375 C 143.878906 184.867188 143.726562 184.878906 143.566406 184.878906 C 142.96875 184.878906 142.476562 184.769531 142.085938 184.550781 C 141.695312 184.316406 141.425781 183.867188 141.28125 183.195312 L 141.207031 183.195312 C 140.925781 183.769531 140.5 184.21875 139.925781 184.550781 C 139.355469 184.867188 138.714844 185.027344 138.007812 185.027344 Z M 138.246094 183.617188 C 138.816406 183.617188 139.324219 183.476562 139.761719 183.195312 C 140.199219 182.914062 140.542969 182.496094 140.785156 181.949219 C 141.042969 181.386719 141.171875 180.703125 141.171875 179.894531 C 141.171875 179.101562 141.042969 178.429688 140.785156 177.882812 C 140.542969 177.332031 140.199219 176.917969 139.761719 176.636719 C 139.324219 176.355469 138.816406 176.214844 138.246094 176.214844 C 137.660156 176.214844 137.140625 176.355469 136.691406 176.636719 C 136.25 176.917969 135.910156 177.332031 135.664062 177.882812 C 135.421875 178.429688 135.300781 179.109375 135.300781 179.914062 C 135.300781 180.707031 135.421875 181.386719 135.664062 181.949219 C 135.910156 182.496094 136.25 182.914062 136.691406 183.195312 C 137.140625 183.476562 137.660156 183.617188 138.246094 183.617188 Z M 138.246094 183.617188 "/>
<path style=" stroke:none;fill-rule:nonzero;fill:rgb(0%,0%,0%);fill-opacity:1;" d="M 162.195312 132.507812 C 161.414062 132.507812 160.738281 132.355469 160.164062 132.050781 C 159.59375 131.742188 159.128906 131.347656 158.773438 130.859375 C 158.433594 130.382812 158.195312 129.855469 158.0625 129.28125 C 157.925781 128.707031 157.859375 128.035156 157.859375 127.265625 C 157.859375 126.558594 157.945312 125.882812 158.117188 125.234375 C 158.300781 124.574219 158.542969 123.945312 158.847656 123.347656 C 159.152344 122.773438 159.511719 122.230469 159.925781 121.714844 C 160.355469 121.191406 160.824219 120.695312 161.335938 120.230469 C 161.847656 119.753906 162.394531 119.316406 162.980469 118.914062 L 163.878906 120.105469 C 163.390625 120.398438 162.910156 120.75 162.433594 121.167969 C 161.957031 121.570312 161.511719 122.015625 161.097656 122.503906 C 160.695312 122.992188 160.347656 123.511719 160.054688 124.0625 C 159.773438 124.597656 159.578125 125.140625 159.46875 125.691406 L 159.523438 125.726562 C 159.78125 125.3125 160.175781 124.964844 160.714844 124.683594 C 161.261719 124.402344 161.871094 124.261719 162.542969 124.261719 C 163.101562 124.261719 163.621094 124.367188 164.097656 124.574219 C 164.574219 124.769531 164.988281 125.050781 165.339844 125.417969 C 165.695312 125.769531 165.96875 126.199219 166.164062 126.699219 C 166.371094 127.1875 166.476562 127.726562 166.476562 128.3125 C 166.476562 129.054688 166.28125 129.746094 165.890625 130.382812 C 165.511719 131.015625 165 131.53125 164.351562 131.921875 C 163.707031 132.3125 162.988281 132.507812 162.195312 132.507812 Z M 162.195312 131.023438 C 162.695312 131.023438 163.144531 130.914062 163.546875 130.691406 C 163.964844 130.472656 164.292969 130.160156 164.535156 129.757812 C 164.78125 129.355469 164.902344 128.878906 164.902344 128.328125 C 164.902344 127.78125 164.78125 127.304688 164.535156 126.902344 C 164.292969 126.496094 163.964844 126.191406 163.546875 125.984375 C 163.144531 125.765625 162.695312 125.65625 162.195312 125.65625 C 161.695312 125.65625 161.238281 125.765625 160.824219 125.984375 C 160.410156 126.191406 160.078125 126.496094 159.835938 126.902344 C 159.59375 127.304688 159.46875 127.78125 159.46875 128.328125 C 159.46875 128.878906 159.59375 129.355469 159.835938 129.757812 C 160.078125 130.160156 160.410156 130.472656 160.824219 130.691406 C 161.238281 130.914062 161.695312 131.023438 162.195312 131.023438 Z M 162.195312 131.023438 "/>
<path style=" stroke:none;fill-rule:nonzero;fill:rgb(0%,0%,0%);fill-opacity:1;" d="M 215.734375 142.582031 C 215.148438 142.582031 214.601562 142.472656 214.089844 142.253906 C 213.578125 142.019531 213.125 141.691406 212.734375 141.265625 C 212.34375 140.824219 212.039062 140.285156 211.820312 139.652344 C 211.601562 139.015625 211.492188 138.289062 211.492188 137.472656 C 211.492188 136.382812 211.679688 135.460938 212.058594 134.707031 C 212.449219 133.949219 212.96875 133.367188 213.613281 132.964844 C 214.257812 132.5625 214.964844 132.359375 215.734375 132.359375 C 216.234375 132.359375 216.6875 132.441406 217.089844 132.597656 C 217.503906 132.746094 217.855469 132.945312 218.148438 133.203125 C 218.453125 133.460938 218.679688 133.746094 218.824219 134.0625 L 218.898438 134.0625 L 218.898438 132.652344 L 220.363281 132.652344 L 220.363281 139.449219 C 220.363281 139.902344 220.441406 140.261719 220.597656 140.53125 C 220.769531 140.800781 221.050781 140.933594 221.441406 140.933594 C 221.574219 140.933594 221.695312 140.917969 221.804688 140.878906 C 221.917969 140.84375 222.039062 140.792969 222.171875 140.734375 L 222.171875 142.308594 C 222.050781 142.355469 221.910156 142.386719 221.75 142.398438 C 221.605469 142.425781 221.453125 142.4375 221.292969 142.4375 C 220.695312 142.4375 220.203125 142.328125 219.8125 142.105469 C 219.421875 141.875 219.15625 141.421875 219.007812 140.75 L 218.933594 140.75 C 218.65625 141.324219 218.226562 141.777344 217.65625 142.105469 C 217.082031 142.425781 216.441406 142.582031 215.734375 142.582031 Z M 215.972656 141.171875 C 216.546875 141.171875 217.050781 141.03125 217.492188 140.75 C 217.929688 140.46875 218.269531 140.054688 218.515625 139.503906 C 218.769531 138.945312 218.898438 138.257812 218.898438 137.453125 C 218.898438 136.660156 218.769531 135.988281 218.515625 135.4375 C 218.269531 134.886719 217.929688 134.472656 217.492188 134.191406 C 217.050781 133.910156 216.546875 133.769531 215.972656 133.769531 C 215.386719 133.769531 214.867188 133.910156 214.417969 134.191406 C 213.980469 134.472656 213.636719 134.886719 213.394531 135.4375 C 213.148438 135.988281 213.027344 136.664062 213.027344 137.472656 C 213.027344 138.265625 213.148438 138.945312 213.394531 139.503906 C 213.636719 140.054688 213.980469 140.46875 214.417969 140.75 C 214.867188 141.03125 215.386719 141.171875 215.972656 141.171875 Z M 215.972656 141.171875 "/>
<path style=" stroke:none;fill-rule:nonzero;fill:rgb(0%,0%,0%);fill-opacity:1;" d="M 241.175781 142.289062 L 241.175781 140.679688 C 241.5625 140.371094 241.9375 140.078125 242.289062 139.796875 C 242.65625 139.503906 243.003906 139.222656 243.332031 138.957031 C 243.660156 138.675781 243.972656 138.398438 244.265625 138.132812 C 244.558594 137.863281 244.832031 137.601562 245.089844 137.34375 C 245.34375 137.085938 245.574219 136.832031 245.78125 136.574219 C 246.113281 136.171875 246.386719 135.773438 246.605469 135.382812 C 246.835938 134.980469 247.007812 134.570312 247.117188 134.15625 C 247.226562 133.742188 247.28125 133.320312 247.28125 132.890625 C 247.28125 132.316406 247.191406 131.847656 247.007812 131.480469 C 246.835938 131.101562 246.574219 130.820312 246.222656 130.636719 C 245.878906 130.441406 245.453125 130.34375 244.941406 130.34375 C 244.476562 130.34375 244.074219 130.449219 243.734375 130.65625 C 243.394531 130.851562 243.125 131.132812 242.929688 131.5 C 242.734375 131.867188 242.617188 132.285156 242.582031 132.761719 L 241.082031 132.597656 C 241.105469 132.097656 241.203125 131.628906 241.375 131.1875 C 241.558594 130.734375 241.808594 130.339844 242.125 129.996094 C 242.453125 129.65625 242.851562 129.386719 243.3125 129.191406 C 243.789062 128.984375 244.339844 128.878906 244.960938 128.878906 C 245.777344 128.878906 246.472656 129.03125 247.046875 129.335938 C 247.628906 129.628906 248.074219 130.058594 248.378906 130.621094 C 248.695312 131.183594 248.855469 131.859375 248.855469 132.652344 C 248.855469 133.25 248.777344 133.832031 248.617188 134.394531 C 248.460938 134.957031 248.234375 135.492188 247.941406 136.007812 C 247.648438 136.519531 247.296875 137.015625 246.878906 137.488281 C 246.683594 137.734375 246.472656 137.972656 246.242188 138.203125 C 246.019531 138.425781 245.789062 138.648438 245.546875 138.882812 C 245.3125 139.101562 245.070312 139.320312 244.8125 139.542969 C 244.558594 139.75 244.289062 139.964844 244.007812 140.183594 C 243.742188 140.390625 243.464844 140.597656 243.1875 140.804688 L 248.984375 140.804688 L 248.984375 142.289062 Z M 241.175781 142.289062 "/>
<path style=" stroke:none;fill-rule:nonzero;fill:rgb(0%,0%,0%);fill-opacity:1;" d="M 165.273438 160 L 165.273438 158.386719 C 165.664062 158.082031 166.035156 157.789062 166.390625 157.507812 C 166.757812 157.214844 167.105469 156.933594 167.433594 156.664062 C 167.761719 156.382812 168.074219 156.109375 168.367188 155.839844 C 168.660156 155.574219 168.933594 155.308594 169.1875 155.054688 C 169.445312 154.796875 169.675781 154.539062 169.882812 154.285156 C 170.214844 153.882812 170.488281 153.484375 170.707031 153.09375 C 170.9375 152.691406 171.109375 152.28125 171.21875 151.867188 C 171.328125 151.449219 171.382812 151.027344 171.382812 150.601562 C 171.382812 150.027344 171.292969 149.558594 171.109375 149.191406 C 170.9375 148.8125 170.675781 148.53125 170.324219 148.347656 C 169.980469 148.152344 169.554688 148.054688 169.042969 148.054688 C 168.578125 148.054688 168.175781 148.160156 167.835938 148.367188 C 167.492188 148.5625 167.226562 148.84375 167.03125 149.210938 C 166.835938 149.574219 166.71875 149.996094 166.683594 150.472656 L 165.183594 150.308594 C 165.207031 149.808594 165.304688 149.335938 165.476562 148.898438 C 165.660156 148.445312 165.910156 148.050781 166.226562 147.707031 C 166.554688 147.363281 166.953125 147.097656 167.414062 146.902344 C 167.890625 146.691406 168.4375 146.589844 169.0625 146.589844 C 169.878906 146.589844 170.574219 146.742188 171.144531 147.046875 C 171.730469 147.339844 172.175781 147.769531 172.480469 148.328125 C 172.796875 148.890625 172.957031 149.570312 172.957031 150.363281 C 172.957031 150.960938 172.878906 151.542969 172.71875 152.105469 C 172.558594 152.664062 172.335938 153.203125 172.042969 153.714844 C 171.75 154.230469 171.394531 154.722656 170.980469 155.199219 C 170.785156 155.445312 170.574219 155.683594 170.339844 155.914062 C 170.121094 156.132812 169.890625 156.359375 169.644531 156.59375 C 169.414062 156.8125 169.171875 157.03125 168.914062 157.25 C 168.660156 157.460938 168.390625 157.671875 168.109375 157.894531 C 167.839844 158.101562 167.566406 158.308594 167.285156 158.515625 L 173.085938 158.515625 L 173.085938 160 Z M 165.273438 160 "/>
<path style=" stroke:none;fill-rule:nonzero;fill:rgb(0%,0%,0%);fill-opacity:1;" d="M 321.890625 139.394531 L 321.890625 138.242188 L 327.46875 129.171875 L 329.078125 129.171875 L 329.078125 137.929688 L 330.667969 137.929688 L 330.667969 139.394531 L 329.078125 139.394531 L 329.078125 142.289062 L 327.558594 142.289062 L 327.558594 139.394531 Z M 327.558594 137.929688 L 327.558594 131.738281 L 327.484375 131.738281 L 323.71875 137.929688 Z M 327.558594 137.929688 "/>
<path style=" stroke:none;fill-rule:nonzero;fill:rgb(0%,0%,0%);fill-opacity:1;" d="M 297.425781 142.582031 C 296.839844 142.582031 296.292969 142.472656 295.78125 142.253906 C 295.265625 142.019531 294.816406 141.691406 294.425781 141.265625 C 294.035156 140.824219 293.730469 140.285156 293.511719 139.652344 C 293.292969 139.015625 293.183594 138.289062 293.183594 137.472656 C 293.183594 136.382812 293.371094 135.460938 293.75 134.707031 C 294.140625 133.949219 294.65625 133.367188 295.304688 132.964844 C 295.949219 132.5625 296.65625 132.359375 297.425781 132.359375 C 297.925781 132.359375 298.375 132.441406 298.777344 132.597656 C 299.191406 132.746094 299.546875 132.945312 299.839844 133.203125 C 300.144531 133.460938 300.371094 133.746094 300.515625 134.0625 L 300.589844 134.0625 L 300.589844 132.652344 L 302.050781 132.652344 L 302.050781 139.449219 C 302.050781 139.902344 302.132812 140.261719 302.289062 140.53125 C 302.460938 140.800781 302.742188 140.933594 303.132812 140.933594 C 303.265625 140.933594 303.386719 140.917969 303.496094 140.878906 C 303.605469 140.84375 303.730469 140.792969 303.863281 140.734375 L 303.863281 142.308594 C 303.742188 142.355469 303.601562 142.386719 303.441406 142.398438 C 303.296875 142.425781 303.144531 142.4375 302.984375 142.4375 C 302.386719 142.4375 301.894531 142.328125 301.503906 142.105469 C 301.113281 141.875 300.84375 141.421875 300.699219 140.75 L 300.625 140.75 C 300.34375 141.324219 299.917969 141.777344 299.34375 142.105469 C 298.773438 142.425781 298.132812 142.582031 297.425781 142.582031 Z M 297.664062 141.171875 C 298.234375 141.171875 298.742188 141.03125 299.179688 140.75 C 299.621094 140.46875 299.960938 140.054688 300.207031 139.503906 C 300.460938 138.945312 300.589844 138.257812 300.589844 137.453125 C 300.589844 136.660156 300.460938 135.988281 300.207031 135.4375 C 299.960938 134.886719 299.621094 134.472656 299.179688 134.191406 C 298.742188 133.910156 298.234375 133.769531 297.664062 133.769531 C 297.078125 133.769531 296.558594 133.910156 296.109375 134.191406 C 295.667969 134.472656 295.328125 134.886719 295.085938 135.4375 C 294.839844 135.988281 294.71875 136.664062 294.71875 137.472656 C 294.71875 138.265625 294.839844 138.945312 295.085938 139.503906 C 295.328125 140.054688 295.667969 140.46875 296.109375 140.75 C 296.558594 141.03125 297.078125 141.171875 297.664062 141.171875 Z M 297.664062 141.171875 "/>
<path style=" stroke:none;fill-rule:nonzero;fill:rgb(0%,0%,0%);fill-opacity:1;" d="M 403.578125 139.394531 L 403.578125 138.242188 L 409.15625 129.171875 L 410.765625 129.171875 L 410.765625 137.929688 L 412.359375 137.929688 L 412.359375 139.394531 L 410.765625 139.394531 L 410.765625 142.289062 L 409.25 142.289062 L 409.25 139.394531 Z M 409.25 137.929688 L 409.25 131.738281 L 409.175781 131.738281 L 405.410156 137.929688 Z M 409.25 137.929688 "/>
<path style=" stroke:none;fill-rule:nonzero;fill:rgb(0%,0%,0%);fill-opacity:1;" d="M 376.101562 146.246094 L 376.101562 132.34375 C 376.101562 131.339844 376.246094 130.503906 376.539062 129.832031 C 376.84375 129.148438 377.300781 128.636719 377.910156 128.292969 C 378.53125 127.9375 379.3125 127.761719 380.253906 127.761719 C 380.972656 127.761719 381.582031 127.878906 382.082031 128.109375 C 382.59375 128.328125 383.007812 128.621094 383.324219 128.988281 C 383.640625 129.355469 383.875 129.765625 384.019531 130.214844 C 384.164062 130.667969 384.238281 131.113281 384.238281 131.554688 C 384.238281 132.140625 384.136719 132.640625 383.929688 133.054688 C 383.734375 133.472656 383.488281 133.808594 383.195312 134.0625 C 382.917969 134.308594 382.640625 134.480469 382.375 134.578125 L 382.375 134.648438 C 382.875 134.773438 383.320312 134.992188 383.707031 135.308594 C 384.109375 135.628906 384.421875 136.023438 384.640625 136.5 C 384.875 136.976562 384.988281 137.515625 384.988281 138.113281 C 384.988281 139.042969 384.800781 139.839844 384.421875 140.511719 C 384.054688 141.183594 383.550781 141.699219 382.902344 142.050781 C 382.257812 142.40625 381.519531 142.582031 380.691406 142.582031 C 380.214844 142.582031 379.769531 142.511719 379.355469 142.363281 C 378.953125 142.230469 378.605469 142.039062 378.3125 141.796875 C 378.019531 141.550781 377.796875 141.289062 377.636719 141.007812 L 377.5625 141.007812 L 377.636719 142.234375 L 377.636719 146.246094 Z M 380.617188 141.171875 C 381.226562 141.171875 381.738281 141.042969 382.152344 140.789062 C 382.570312 140.53125 382.878906 140.175781 383.085938 139.726562 C 383.304688 139.273438 383.417969 138.765625 383.417969 138.203125 C 383.417969 137.3125 383.171875 136.640625 382.683594 136.1875 C 382.195312 135.726562 381.5 135.492188 380.601562 135.492188 L 379.101562 135.492188 L 379.101562 134.082031 L 380.140625 134.082031 C 380.753906 134.082031 381.238281 133.972656 381.605469 133.753906 C 381.972656 133.519531 382.238281 133.222656 382.410156 132.855469 C 382.582031 132.488281 382.667969 132.089844 382.667969 131.664062 C 382.667969 130.929688 382.453125 130.332031 382.027344 129.867188 C 381.613281 129.40625 381.019531 129.171875 380.253906 129.171875 C 379.640625 129.171875 379.136719 129.292969 378.734375 129.539062 C 378.332031 129.785156 378.03125 130.144531 377.839844 130.621094 C 377.644531 131.082031 377.546875 131.65625 377.546875 132.34375 L 377.546875 137.398438 C 377.546875 138.132812 377.660156 138.785156 377.894531 139.359375 C 378.125 139.921875 378.464844 140.367188 378.917969 140.695312 C 379.378906 141.015625 379.949219 141.171875 380.617188 141.171875 Z M 380.617188 141.171875 "/>
<path style=" stroke:none;fill-rule:nonzero;fill:rgb(0%,0%,0%);fill-opacity:1;" d="M 458.097656 146.246094 L 458.097656 132.34375 C 458.097656 131.339844 458.242188 130.503906 458.535156 129.832031 C 458.839844 129.148438 459.296875 128.636719 459.90625 128.292969 C 460.527344 127.9375 461.308594 127.761719 462.246094 127.761719 C 462.96875 127.761719 463.578125 127.878906 464.078125 128.109375 C 464.589844 128.328125 465.003906 128.621094 465.320312 128.988281 C 465.636719 129.355469 465.867188 129.765625 466.015625 130.214844 C 466.160156 130.667969 466.234375 131.113281 466.234375 131.554688 C 466.234375 132.140625 466.132812 132.640625 465.921875 133.054688 C 465.730469 133.472656 465.484375 133.808594 465.191406 134.0625 C 464.910156 134.308594 464.636719 134.480469 464.371094 134.578125 L 464.371094 134.648438 C 464.867188 134.773438 465.3125 134.992188 465.703125 135.308594 C 466.105469 135.628906 466.417969 136.023438 466.636719 136.5 C 466.867188 136.976562 466.984375 137.515625 466.984375 138.113281 C 466.984375 139.042969 466.796875 139.839844 466.417969 140.511719 C 466.050781 141.183594 465.546875 141.699219 464.898438 142.050781 C 464.253906 142.40625 463.515625 142.582031 462.6875 142.582031 C 462.210938 142.582031 461.765625 142.511719 461.351562 142.363281 C 460.949219 142.230469 460.601562 142.039062 460.308594 141.796875 C 460.015625 141.550781 459.789062 141.289062 459.632812 141.007812 L 459.558594 141.007812 L 459.632812 142.234375 L 459.632812 146.246094 Z M 462.613281 141.171875 C 463.222656 141.171875 463.734375 141.042969 464.148438 140.789062 C 464.5625 140.53125 464.875 140.175781 465.082031 139.726562 C 465.300781 139.273438 465.410156 138.765625 465.410156 138.203125 C 465.410156 137.3125 465.167969 136.640625 464.679688 136.1875 C 464.191406 135.726562 463.496094 135.492188 462.59375 135.492188 L 461.09375 135.492188 L 461.09375 134.082031 L 462.136719 134.082031 C 462.746094 134.082031 463.234375 133.972656 463.601562 133.753906 C 463.96875 133.519531 464.234375 133.222656 464.40625 132.855469 C 464.578125 132.488281 464.660156 132.089844 464.660156 131.664062 C 464.660156 130.929688 464.449219 130.332031 464.023438 129.867188 C 463.605469 129.40625 463.015625 129.171875 462.246094 129.171875 C 461.636719 129.171875 461.132812 129.292969 460.730469 129.539062 C 460.328125 129.785156 460.027344 130.144531 459.832031 130.621094 C 459.636719 131.082031 459.539062 131.65625 459.539062 132.34375 L 459.539062 137.398438 C 459.539062 138.132812 459.65625 138.785156 459.886719 139.359375 C 460.121094 139.921875 460.460938 140.367188 460.914062 140.695312 C 461.375 141.015625 461.941406 141.171875 462.613281 141.171875 Z M 462.613281 141.171875 "/>
<path style="fill:none;stroke-width:1.5;stroke-linecap:butt;stroke-linejoin:miter;stroke:rgb(0%,0%,0%);stroke-opacity:1;stroke-miterlimit:4;" d="M 568.003622 376.995996 L 419.002469 244.998145 " transform="matrix(0.304816,0,0,0.305344,0,0)"/>
<path style="fill:none;stroke-width:1.5;stroke-linecap:butt;stroke-linejoin:miter;stroke:rgb(0%,0%,0%);stroke-opacity:1;stroke-miterlimit:4;" d="M 568.003622 447.996973 L 418.002891 579.994824 " transform="matrix(0.304816,0,0,0.305344,0,0)"/>
<path style="fill:none;stroke-width:1.5;stroke-linecap:butt;stroke-linejoin:miter;stroke:rgb(0%,0%,0%);stroke-opacity:1;stroke-miterlimit:4;" d="M 294.003996 207.003027 L 145.002842 75.005176 " transform="matrix(0.304816,0,0,0.305344,0,0)"/>
<path style="fill:none;stroke-width:1.5;stroke-linecap:butt;stroke-linejoin:miter;stroke:rgb(0%,0%,0%);stroke-opacity:1;stroke-miterlimit:4;" d="M 294.003996 278.004004 L 144.003265 410.001855 " transform="matrix(0.304816,0,0,0.305344,0,0)"/>
</g>
</svg>
